<svg width="270" height="80" viewBox="0 0 270 80" fill="none" xmlns="http://www.w3.org/2000/svg">
<path d="M28.1729 48.5001H23.2714L28.3464 38.408V39.3623L23.4594 30.022H28.2597L31.5128 36.5862H31.7586L35.0118 30.022H39.8121L34.9106 39.3623V38.408L39.9856 48.5001H35.0841L31.7586 41.4588H31.5128L28.1729 48.5001ZM57.5934 45.406V49.2809L49.5834 48.9628C46.335 48.8279 43.9975 48.1001 42.571 46.7795C41.1444 45.459 40.4311 43.5071 40.4311 40.9238V37.5694C40.4311 35.0343 41.1058 33.0776 42.4553 31.6992C43.8144 30.3112 45.829 29.6172 48.499 29.6172C50.2726 29.6172 51.757 29.9256 52.9522 30.5425C54.1475 31.1594 55.0439 32.0607 55.6415 33.2463C56.2488 34.4223 56.5524 35.8585 56.5524 37.555V40.0563C56.5524 40.866 56.456 41.5841 56.2632 42.2106C56.0801 42.8275 55.8102 43.3577 55.4536 43.8011C55.1066 44.2348 54.6824 44.5867 54.1812 44.8566C53.68 45.1168 53.1161 45.3 52.4896 45.406V45.5795L57.5934 45.406ZM48.9038 45.1746L49.381 45.1891C49.7569 45.0831 50.0991 44.9144 50.4075 44.6831C50.716 44.4517 50.9859 44.1625 51.2172 43.8155C51.4485 43.4685 51.6269 43.054 51.7522 42.5721C51.8871 42.0805 51.9546 41.5263 51.9546 40.9094V37.3815C51.9546 36.0802 51.6702 35.0825 51.1015 34.3885C50.5328 33.6945 49.6653 33.3475 48.499 33.3475C47.3327 33.3475 46.4651 33.6945 45.8964 34.3885C45.3277 35.0825 45.0434 36.0802 45.0434 37.3815V41.1118C45.0434 42.4131 45.3904 43.4059 46.0844 44.0902C46.7784 44.7746 47.7182 45.1361 48.9038 45.1746Z" fill="white"/>
<rect x="1.92145" y="1.82843" width="76.7693" height="76.3432" rx="1.60651" stroke="white" stroke-width="3.21302" stroke-linecap="round" stroke-dasharray="6.43 6.43"/>
<path d="M139.424 19.8734C139.99 19.8734 140.439 20.1062 140.771 20.5718C141.137 21.0042 141.32 21.6693 141.32 22.5673C141.32 23.3654 141.137 24.2966 140.771 25.3609C140.439 26.4251 140.006 27.3397 139.474 28.1046C139.341 28.2044 139.208 28.221 139.075 28.1545C138.975 28.0547 138.925 27.9217 138.925 27.7554C139.258 26.9572 139.424 26.1923 139.424 25.4607C139.424 24.596 139.241 23.9474 138.876 23.5151C138.51 23.0495 137.878 22.8167 136.98 22.8167C135.849 22.8167 134.702 23.0994 133.538 23.6648C132.374 24.2301 131.226 25.0283 130.096 26.0593C128.998 27.057 127.934 28.2709 126.903 29.701C125.872 31.0978 124.924 32.6442 124.059 34.3404C124.592 36.6684 125.207 38.7636 125.905 40.626C126.637 42.4884 127.435 44.0681 128.3 45.3652C129.198 46.6622 130.179 47.6599 131.243 48.3583C132.307 49.0567 133.488 49.4059 134.785 49.4059C135.749 49.4059 136.548 49.1232 137.179 48.5579C137.845 47.9925 138.377 47.2276 138.776 46.2631C138.876 46.1633 138.975 46.1633 139.075 46.2631C139.208 46.3296 139.275 46.4793 139.275 46.7121C138.377 48.7075 137.479 50.0877 136.581 50.8526C135.683 51.6175 134.652 52 133.488 52C132.058 52 130.744 51.6342 129.547 50.9025C128.35 50.1376 127.252 49.1066 126.254 47.8096C125.29 46.5125 124.442 45.016 123.71 43.3198C123.012 41.5905 122.446 39.7613 122.014 37.8324C119.52 42.5549 116.843 46.0968 113.982 48.4581C111.122 50.8194 108.262 52 105.402 52C104.138 52 103.141 51.7339 102.409 51.2018C101.711 50.6697 101.361 49.9713 101.361 49.1066C101.361 48.774 101.428 48.3417 101.561 47.8096C101.727 47.2442 101.943 46.6456 102.209 46.0137C102.475 45.3818 102.791 44.7333 103.157 44.0681C103.523 43.403 103.939 42.7877 104.404 42.2223C104.504 42.0893 104.637 42.0727 104.803 42.1725C104.97 42.239 105.02 42.372 104.953 42.5715C104.421 43.3365 104.055 44.0681 103.856 44.7665C103.689 45.4649 103.656 46.1633 103.756 46.8617C103.856 47.6267 104.205 48.2253 104.803 48.6576C105.435 49.09 106.333 49.3062 107.497 49.3062C108.894 49.3062 110.224 49.0235 111.488 48.4581C112.785 47.8595 114.016 47.0114 115.18 45.9139C116.344 44.8164 117.474 43.4861 118.572 41.923C119.669 40.3599 120.734 38.5973 121.765 36.6351C121.299 34.4734 120.933 32.5445 120.667 30.8483C120.434 29.1522 120.202 27.7221 119.969 26.5581C119.736 25.3609 119.47 24.4463 119.171 23.8144C118.871 23.1825 118.439 22.8666 117.874 22.8666C117.208 22.8666 116.56 23.2324 115.928 23.9641C115.329 24.6625 114.797 25.4773 114.332 26.4085C114.165 26.5748 114.016 26.6247 113.883 26.5581C113.75 26.4584 113.7 26.2921 113.733 26.0593C114.099 25.2611 114.531 24.4962 115.03 23.7645C115.529 23.0329 116.044 22.3843 116.577 21.819C117.109 21.2203 117.624 20.7547 118.123 20.4222C118.622 20.0563 119.071 19.8734 119.47 19.8734C120.335 19.8734 120.983 20.2725 121.415 21.0707C121.848 21.8356 122.18 22.85 122.413 24.1137C122.679 25.3442 122.895 26.7577 123.062 28.354C123.228 29.9504 123.477 31.5634 123.81 33.193C124.741 31.2308 125.805 29.4349 127.003 27.8053C128.2 26.1757 129.48 24.7789 130.844 23.6149C132.207 22.4176 133.604 21.503 135.034 20.8711C136.498 20.206 137.961 19.8734 139.424 19.8734ZM151.271 41.7235C151.271 43.6192 148.76 44.9162 143.738 45.6146C143.705 45.9472 143.672 46.2797 143.639 46.6123C143.639 46.9449 143.639 47.2941 143.639 47.6599C143.639 48.5246 143.838 49.1898 144.237 49.6554C144.636 50.121 145.268 50.3538 146.133 50.3538C146.765 50.3538 147.413 50.1708 148.078 49.805C148.744 49.4392 149.276 48.9736 149.675 48.4082C149.808 48.3417 149.908 48.375 149.974 48.508C150.041 48.6078 150.057 48.7242 150.024 48.8572C149.359 49.7219 148.511 50.4702 147.48 51.1021C146.482 51.7007 145.401 52 144.237 52C143.073 52 142.225 51.7173 141.693 51.1519C141.194 50.5533 140.945 49.7219 140.945 48.6576C140.945 47.6267 141.161 46.5624 141.593 45.4649C142.026 44.3342 142.574 43.3032 143.239 42.372C143.938 41.4408 144.719 40.6925 145.584 40.1271C146.482 39.5285 147.38 39.2292 148.278 39.2292C149.176 39.2292 149.891 39.4952 150.423 40.0274C150.988 40.5262 151.271 41.0916 151.271 41.7235ZM146.931 40.5262C146.166 40.5262 145.501 40.8921 144.936 41.6237C144.403 42.3221 144.038 43.4196 143.838 44.9162C145.434 44.7499 146.615 44.4506 147.38 44.0182C148.145 43.5526 148.527 42.9873 148.527 42.3221C148.527 41.8233 148.378 41.4075 148.078 41.075C147.779 40.7091 147.397 40.5262 146.931 40.5262ZM157.223 51.3016C156.757 51.4679 156.208 51.6342 155.576 51.8005C154.978 51.9335 154.379 52 153.781 52C153.381 52 153.265 51.7838 153.431 51.3515C153.997 49.9547 154.479 48.4415 154.878 46.8119C155.277 45.149 155.56 43.669 155.726 42.372C155.826 41.208 155.643 40.626 155.177 40.626C154.679 40.626 154.063 41.0085 153.332 41.7734C153.165 41.8399 153.032 41.8233 152.933 41.7235C152.833 41.6237 152.816 41.5073 152.883 41.3743C153.481 40.7757 154.146 40.2768 154.878 39.8777C155.643 39.4454 156.408 39.2292 157.173 39.2292C157.672 39.2292 158.004 39.3788 158.171 39.6782C158.337 39.9775 158.42 40.3599 158.42 40.8255C158.42 41.4574 158.353 42.2057 158.22 43.0704C158.087 43.9351 157.904 44.8497 157.672 45.8141C157.472 46.7453 157.239 47.6765 156.973 48.6078C156.74 49.5057 156.508 50.3205 156.275 51.0522C157.206 50.8194 158.121 50.387 159.019 49.7551C159.95 49.1232 160.781 48.3916 161.513 47.5601C162.245 46.7287 162.827 45.8308 163.259 44.8663C163.725 43.8686 163.957 42.8709 163.957 41.8731C163.957 41.0085 163.691 40.5761 163.159 40.5761C162.86 40.5761 162.61 40.6426 162.411 40.7757C162.245 40.8754 162.062 41.075 161.862 41.3743C161.762 41.4408 161.679 41.4242 161.613 41.3244C161.546 41.2246 161.53 41.1249 161.563 41.0251C161.796 40.6593 162.195 40.2768 162.76 39.8777C163.359 39.4454 163.974 39.2292 164.606 39.2292C165.138 39.2292 165.537 39.4287 165.803 39.8278C166.102 40.1936 166.252 40.6593 166.252 41.2246C166.252 42.1891 166.003 43.1702 165.504 44.1679C165.005 45.1324 164.34 46.0636 163.508 46.9615C162.677 47.8595 161.712 48.6909 160.615 49.4558C159.517 50.1875 158.387 50.8027 157.223 51.3016ZM178.309 41.7235C178.309 43.6192 175.798 44.9162 170.776 45.6146C170.743 45.9472 170.71 46.2797 170.676 46.6123C170.676 46.9449 170.676 47.2941 170.676 47.6599C170.676 48.5246 170.876 49.1898 171.275 49.6554C171.674 50.121 172.306 50.3538 173.171 50.3538C173.803 50.3538 174.451 50.1708 175.116 49.805C175.781 49.4392 176.313 48.9736 176.713 48.4082C176.846 48.3417 176.945 48.375 177.012 48.508C177.078 48.6078 177.095 48.7242 177.062 48.8572C176.397 49.7219 175.549 50.4702 174.518 51.1021C173.52 51.7007 172.439 52 171.275 52C170.111 52 169.263 51.7173 168.731 51.1519C168.232 50.5533 167.983 49.7219 167.983 48.6576C167.983 47.6267 168.199 46.5624 168.631 45.4649C169.063 44.3342 169.612 43.3032 170.277 42.372C170.976 41.4408 171.757 40.6925 172.622 40.1271C173.52 39.5285 174.418 39.2292 175.316 39.2292C176.214 39.2292 176.929 39.4952 177.461 40.0274C178.026 40.5262 178.309 41.0916 178.309 41.7235ZM173.969 40.5262C173.204 40.5262 172.539 40.8921 171.973 41.6237C171.441 42.3221 171.075 43.4196 170.876 44.9162C172.472 44.7499 173.653 44.4506 174.418 44.0182C175.183 43.5526 175.565 42.9873 175.565 42.3221C175.565 41.8233 175.416 41.4075 175.116 41.075C174.817 40.7091 174.434 40.5262 173.969 40.5262ZM193.988 48.508C194.055 48.4415 194.138 48.4581 194.238 48.5579C194.338 48.6244 194.371 48.7242 194.338 48.8572C193.739 49.6886 193.04 50.4203 192.242 51.0522C191.477 51.6841 190.712 52 189.948 52C189.382 52 188.933 51.8171 188.601 51.4513C188.301 51.0854 188.152 50.6032 188.152 50.0046C188.152 48.8406 188.351 47.5768 188.75 46.2132C189.183 44.8497 189.748 43.4695 190.446 42.0727C190.546 41.8399 190.596 41.5905 190.596 41.3244C190.596 40.9918 190.446 40.8255 190.147 40.8255C188.917 40.8255 187.553 41.6736 186.056 43.3697C184.56 45.0326 183.18 47.6932 181.916 51.3515C181.883 51.4513 181.766 51.551 181.567 51.6508C181.4 51.7173 181.201 51.7838 180.968 51.8503C180.735 51.8836 180.502 51.9169 180.27 51.9501C180.037 51.9834 179.854 52 179.721 52C179.555 52 179.422 51.9667 179.322 51.9002C179.255 51.8337 179.255 51.7173 179.322 51.551C179.887 50.121 180.453 48.5579 181.018 46.8617C181.617 45.1324 182.132 43.403 182.564 41.6736C182.664 41.341 182.681 41.1082 182.614 40.9752C182.548 40.8089 182.431 40.7258 182.265 40.7258C181.899 40.7258 181.55 40.8921 181.217 41.2246C180.885 41.5239 180.586 41.8565 180.32 42.2223C180.22 42.2889 180.12 42.2722 180.02 42.1725C179.954 42.0727 179.937 41.9729 179.97 41.8731C180.137 41.6403 180.353 41.3743 180.619 41.075C180.918 40.7757 181.251 40.493 181.617 40.2269C181.982 39.9276 182.365 39.6948 182.764 39.5285C183.163 39.329 183.562 39.2292 183.961 39.2292C184.527 39.2292 184.892 39.4121 185.059 39.7779C185.258 40.1105 185.308 40.5262 185.208 41.0251C185.042 41.7567 184.859 42.4551 184.66 43.1203C184.493 43.7522 184.277 44.4672 184.011 45.2654C184.41 44.5337 184.892 43.8187 185.458 43.1203C186.056 42.3886 186.705 41.7401 187.403 41.1747C188.135 40.5761 188.917 40.1105 189.748 39.7779C190.579 39.4121 191.461 39.2292 192.392 39.2292C192.791 39.2292 193.09 39.329 193.29 39.5285C193.523 39.728 193.639 39.9608 193.639 40.2269C193.639 40.6925 193.523 41.1082 193.29 41.4741C192.591 42.7378 191.993 44.0515 191.494 45.415C191.028 46.7453 190.796 47.9426 190.796 49.0068C190.796 49.8715 191.078 50.3039 191.644 50.3039C192.009 50.3039 192.375 50.1542 192.741 49.8549C193.107 49.5556 193.523 49.1066 193.988 48.508ZM223.154 19.8235C224.984 19.8235 226.58 20.1062 227.944 20.6716C229.34 21.237 230.504 22.0019 231.436 22.9664C232.4 23.9308 233.115 25.0616 233.581 26.3586C234.079 27.6556 234.329 29.0358 234.329 30.4991C234.329 33.0932 233.747 35.5542 232.583 37.8823C231.419 40.177 229.856 42.2223 227.894 44.0182C225.931 45.8141 223.653 47.3107 221.059 48.508C218.498 49.7052 215.821 50.4868 213.028 50.8526C213.892 51.1519 214.84 51.5344 215.871 52C216.902 52.4989 217.983 53.0143 219.114 53.5465C220.244 54.1118 221.408 54.6772 222.606 55.2426C223.803 55.808 225 56.3235 226.198 56.7891C227.495 57.2879 228.659 57.6537 229.69 57.8865C230.754 58.1193 231.918 58.2357 233.182 58.2357C234.878 58.2357 236.274 58.0029 237.372 57.5373C238.503 57.105 239.467 56.4565 240.265 55.5918C240.332 55.5253 240.432 55.5253 240.565 55.5918C240.698 55.6583 240.731 55.7747 240.664 55.941C239.767 57.2048 238.519 58.2856 236.923 59.1836C235.36 60.1148 233.597 60.5804 231.635 60.5804C230.937 60.5804 230.288 60.5471 229.69 60.4806C229.124 60.4141 228.542 60.2977 227.944 60.1314C227.378 59.9984 226.796 59.8155 226.198 59.5827C225.599 59.3831 224.95 59.1171 224.252 58.7845C222.589 58.0196 220.893 57.1881 219.164 56.2902C217.434 55.3922 215.755 54.5442 214.125 53.746C212.529 52.9811 210.999 52.3492 209.536 51.8503C208.072 51.3182 206.792 51.0688 205.694 51.1021C205.528 51.0355 205.445 50.9358 205.445 50.8027C205.445 50.6364 205.595 50.4203 205.894 50.1542C206.16 49.9547 206.542 49.7718 207.041 49.6055C207.54 49.4059 207.923 49.3062 208.189 49.3062C208.621 49.3062 209.12 49.4392 209.685 49.7052C210.284 49.9713 210.833 50.1043 211.331 50.1043C213.892 50.1043 216.353 49.6554 218.715 48.7574C221.109 47.8595 223.204 46.5957 225 44.9661C226.829 43.3032 228.293 41.341 229.39 39.0795C230.488 36.818 231.036 34.3071 231.036 31.5467C231.036 30.0169 230.854 28.6035 230.488 27.3064C230.122 25.9761 229.573 24.8288 228.841 23.8643C228.11 22.8998 227.212 22.1515 226.148 21.6194C225.117 21.0873 223.903 20.8213 222.506 20.8213C220.644 20.8213 218.931 21.2203 217.368 22.0185C215.838 22.7834 214.508 23.8643 213.377 25.2611C212.246 26.6579 211.365 28.3374 210.733 30.2996C210.134 32.2285 209.835 34.3736 209.835 36.7349C209.835 38.5308 210.217 40.0939 210.982 41.4242C211.78 42.7212 212.944 43.4861 214.474 43.7189C215.638 43.9185 216.47 43.8021 216.969 43.3697C217.068 43.3032 217.152 43.3198 217.218 43.4196C217.318 43.5194 217.334 43.6524 217.268 43.8187C217.002 44.1845 216.553 44.4838 215.921 44.7166C215.289 44.9494 214.591 45.0658 213.826 45.0658C211.797 45.0658 210.167 44.4173 208.937 43.1203C207.706 41.8233 207.091 39.9442 207.091 37.4832C207.091 35.1219 207.524 32.877 208.388 30.7486C209.253 28.6201 210.417 26.7411 211.88 25.1114C213.344 23.4818 215.04 22.2014 216.969 21.2702C218.931 20.3058 220.993 19.8235 223.154 19.8235ZM235.604 52C234.207 52 233.509 51.2351 233.509 49.7052C233.509 49.1731 233.559 48.5579 233.659 47.8595C233.792 47.1611 233.975 46.446 234.207 45.7144C234.473 44.9494 234.773 44.1845 235.105 43.4196C235.438 42.6547 235.837 41.923 236.303 41.2246C235.937 41.4574 235.588 41.7069 235.255 41.9729C234.922 42.2057 234.623 42.4551 234.357 42.7212C234.257 42.7877 234.157 42.7711 234.058 42.6713C233.991 42.5383 233.991 42.4219 234.058 42.3221C234.623 41.7235 235.421 41.1082 236.452 40.4763C237.516 39.8444 238.531 39.3456 239.495 38.9798C239.662 38.9798 239.778 39.0296 239.844 39.1294C239.944 39.1959 239.961 39.2957 239.894 39.4287C238.83 40.8255 237.965 42.3387 237.3 43.9684C236.668 45.598 236.352 47.1777 236.352 48.7075C236.352 49.672 236.652 50.1542 237.25 50.1542C237.683 50.1542 238.215 49.8715 238.847 49.3062C239.479 48.7075 240.144 47.9426 240.842 47.0114C241.541 46.0469 242.239 44.9661 242.937 43.7688C243.669 42.5715 244.334 41.3577 244.933 40.1271C245.033 39.9276 245.315 39.728 245.781 39.5285C246.28 39.329 246.779 39.2292 247.277 39.2292C247.776 39.2292 247.926 39.3622 247.726 39.6283C247.261 40.493 246.845 41.3078 246.479 42.0727C246.147 42.8043 245.864 43.536 245.631 44.2677C245.398 44.9993 245.215 45.7476 245.082 46.5125C244.983 47.2442 244.933 48.059 244.933 48.957C244.933 50.0212 245.215 50.5533 245.781 50.5533C246.346 50.5533 246.978 50.0544 247.677 49.0567C247.776 48.9902 247.876 48.9902 247.976 49.0567C248.076 49.1232 248.109 49.223 248.076 49.356C247.51 50.2207 246.878 50.8859 246.18 51.3515C245.515 51.7838 244.9 52 244.334 52C242.937 52 242.239 51.1852 242.239 49.5556C242.239 47.8595 242.538 46.18 243.137 44.5171C241.873 46.8119 240.543 48.641 239.146 50.0046C237.749 51.3349 236.569 52 235.604 52ZM256.408 37.0841C256.308 37.1839 256.192 37.1839 256.059 37.0841C255.959 36.9843 255.876 36.8513 255.81 36.685C255.743 36.4855 255.71 36.2859 255.71 36.0864C255.71 35.8536 255.76 35.654 255.859 35.4877C256.225 35.0221 256.757 34.4401 257.456 33.7417C258.187 33.0101 258.936 32.3948 259.701 31.8959C259.767 31.8627 259.85 31.8959 259.95 31.9957C260.05 32.0622 260.083 32.1287 260.05 32.1953C259.351 32.8271 258.686 33.5921 258.054 34.49C257.423 35.3547 256.874 36.2194 256.408 37.0841ZM251.07 42.7212C250.971 42.7877 250.887 42.7711 250.821 42.6713C250.754 42.5383 250.738 42.4219 250.771 42.3221C252.002 41.3244 253.714 40.2934 255.909 39.2292C256.175 39.2292 256.308 39.3788 256.308 39.6782C255.876 40.4431 255.444 41.2745 255.011 42.1725C254.612 43.0704 254.246 43.9684 253.914 44.8663C253.615 45.731 253.365 46.5791 253.166 47.4105C252.966 48.2087 252.866 48.8738 252.866 49.4059C252.866 50.0711 253.099 50.4036 253.565 50.4036C253.93 50.4036 254.28 50.254 254.612 49.9547C254.978 49.6221 255.394 49.2064 255.859 48.7075C255.926 48.641 256.009 48.6576 256.109 48.7574C256.209 48.8239 256.225 48.9403 256.159 49.1066C255.427 49.9713 254.695 50.6697 253.964 51.2018C253.265 51.7339 252.584 52 251.918 52C250.754 52 250.172 51.4513 250.172 50.3538C250.172 49.7551 250.256 49.0567 250.422 48.2586C250.621 47.4271 250.871 46.5957 251.17 45.7643C251.503 44.8996 251.852 44.0681 252.218 43.27C252.617 42.4385 253.016 41.7235 253.415 41.1249C253.049 41.3244 252.633 41.5738 252.168 41.8731C251.736 42.1725 251.37 42.4551 251.07 42.7212ZM259.901 48.6576C260.666 48.9237 261.447 49.1565 262.246 49.356C263.077 49.5223 263.892 49.6055 264.69 49.6055C265.521 49.6055 266.17 49.4059 266.636 49.0068C267.134 48.6078 267.517 48.059 267.783 47.3606C267.883 47.2608 267.982 47.2442 268.082 47.3107C268.215 47.3772 268.265 47.477 268.232 47.61C267.134 50.5367 265.521 52 263.393 52C262.695 52 261.98 51.9169 261.248 51.7506C260.549 51.5843 259.834 51.3681 259.103 51.1021C258.67 50.969 258.288 50.969 257.955 51.1021C257.623 51.2018 257.19 51.5011 256.658 52C256.492 52 256.376 51.9169 256.309 51.7506C256.209 51.5843 256.193 51.418 256.259 51.2517C256.991 50.52 257.772 49.7551 258.604 48.957C259.435 48.1255 260.267 47.3107 261.098 46.5125C261.93 45.7144 262.744 44.9328 263.543 44.1679C264.341 43.403 265.072 42.7046 265.738 42.0727C264.973 41.9064 264.108 41.7734 263.144 41.6736C262.212 41.5406 261.431 41.4741 260.799 41.4741C259.834 41.4741 259.169 42.0062 258.803 43.0704C258.737 43.1702 258.637 43.1868 258.504 43.1203C258.371 43.0538 258.305 42.9706 258.305 42.8709C258.737 41.6736 259.236 40.7757 259.801 40.177C260.367 39.5451 261.148 39.2292 262.146 39.2292C262.911 39.2292 263.726 39.3123 264.59 39.4786C265.488 39.6449 266.17 39.7779 266.636 39.8777C267.001 39.9775 267.317 39.9775 267.583 39.8777C267.883 39.7779 268.165 39.6116 268.431 39.3788C268.531 39.2791 268.681 39.2292 268.88 39.2292C269.28 39.2292 269.446 39.3788 269.379 39.6782C267.55 41.3743 265.854 42.954 264.291 44.4173C262.761 45.8474 261.298 47.2608 259.901 48.6576Z" fill="white"/>
</svg>
