<svg width="402" height="120" viewBox="0 0 402 140" fill="none" xmlns="http://www.w3.org/2000/svg">
<g clip-path="url(#clip0_408_1404)">
<path d="M0.000195018 49.4945C0.39758 48.1529 0.667365 46.7566 1.21787 45.4806C3.60218 39.9354 7.89321 36.7745 13.8358 35.7246C14.0873 34.6637 14.2514 33.5772 14.6087 32.5601C16.8398 26.1472 21.2475 22.1478 27.9338 20.7807C28.827 20.5984 29.1879 20.2812 29.3557 19.3443C29.578 18.1084 30.0593 16.9016 30.5624 15.735C31.1858 14.2913 32.1993 13.9048 33.5191 14.4553C34.6857 14.9402 35.0503 15.9865 34.4086 17.4193C32.7571 21.1197 32.8082 24.7691 34.8388 28.2763C35.5097 29.4357 36.5049 30.4237 37.4419 31.408C38.5429 32.5637 38.7726 33.8251 37.9122 34.7803C37.019 35.7683 35.7867 35.7501 34.5253 34.6782C31.565 32.1663 29.8077 28.9544 29.0895 25.1738C24.9954 24.3061 18.7429 30.3471 18.3711 35.4366C20.1429 36.1402 21.9256 36.7672 23.6318 37.5584C24.5251 37.9703 25.3344 38.6156 26.1037 39.25C27.3031 40.2343 27.4781 41.4484 26.6687 42.4655C25.8557 43.4863 24.6126 43.6103 23.4095 42.6442C20.9121 40.6354 18.1086 39.775 14.9076 39.9609C9.87649 40.2489 5.23547 44.4124 4.45164 49.3888C3.78447 53.6215 5.01673 57.1615 8.12654 60.1547C10.7879 58.4703 13.566 57.4167 16.6503 57.3547C18.3091 57.3219 19.308 58.0511 19.4356 59.3344C19.5596 60.5812 18.6445 61.5401 16.9966 61.6713C12.1842 62.0541 8.5859 64.2525 6.62085 68.7185C3.31052 76.236 8.626 84.5593 16.9128 84.9566C18.958 85.0551 20.1356 86.7576 19.0528 88.2086C18.6408 88.7591 17.7148 89.1748 17.0003 89.2112C13.8029 89.3716 10.9374 88.2524 8.1557 86.5061C6.1542 88.2196 4.90371 90.3888 4.4808 92.9627C3.28136 100.276 8.23591 106.445 15.6258 106.758C18.4695 106.878 21.109 105.956 23.322 104.089C23.661 103.805 23.9053 103.295 23.9964 102.846C25.0901 97.5745 28.7578 94.1475 34.0441 93.5168C35.6774 93.32 36.8732 94.071 37.0263 95.3871C37.2013 96.8782 36.3154 97.786 34.5326 97.9464C30.8759 98.2745 28.2218 101.085 28.2546 104.596C28.2875 108.089 30.9853 110.922 34.6383 111.188C35.6992 111.264 36.5268 111.592 36.9278 112.588C37.5622 114.155 36.5851 115.559 34.8425 115.563C30.6317 115.57 27.6093 113.488 25.3927 110.054C25.123 109.635 24.9151 109.179 24.7073 108.796C22.6475 109.576 20.6278 110.342 18.4075 111.184C18.3164 112.588 18.9289 113.999 19.7419 115.286C25.1047 123.776 35.9216 124.152 41.897 116.066C42.5787 115.143 43.3553 114.505 44.5292 114.79C45.7469 115.085 46.2172 116.004 46.3521 117.214C46.5416 118.917 47.6572 119.948 49.3999 120.196C51.0879 120.437 52.0285 121.509 51.7696 122.894C51.5144 124.25 50.2129 124.961 48.5833 124.695C46.425 124.345 44.6677 123.306 43.2058 121.553C40.4642 124.057 37.3106 125.577 33.4097 126.296C33.9639 127.634 34.3394 128.932 35.0029 130.062C37.5257 134.338 42.5423 136.475 47.3073 135.414C52.1306 134.338 55.6195 130.51 56.243 125.567C56.3742 124.531 56.4617 123.485 56.4617 122.442C56.4872 89.2695 56.5018 56.097 56.5091 22.9244C56.5091 17.0912 52.9472 12.4575 47.3948 11.1924C45.0979 10.6674 42.8011 10.8606 40.5517 11.6991C38.6049 12.4246 37.0627 11.3674 37.482 9.54451C37.6388 8.85547 38.408 8.0607 39.0934 7.77633C45.6302 5.05661 53.3774 7.32061 57.621 13.1028C57.9637 13.5694 58.2882 14.047 58.6929 14.6157C60.6506 11.4585 63.2136 9.15077 66.5786 7.78362C75.7148 4.06861 86.189 9.74503 88.0228 19.4281C88.165 20.1791 88.2744 20.8026 89.3535 20.6239C89.4884 20.1244 89.6379 19.5594 89.7874 18.9979C92.9227 7.28051 103.776 -0.583351 115.953 0.0400707C127.699 0.641618 137.714 9.61014 139.65 21.3676C140.656 27.4779 139.526 33.2382 136.394 38.5865C135.629 39.8989 134.583 40.2489 133.434 39.6583C132.264 39.0568 132.012 37.9193 132.822 36.5048C134.353 33.8215 135.301 30.9705 135.694 27.8935C137.105 16.8542 128.877 5.98263 117.878 4.43319C106.029 2.76344 95.6679 10.1315 93.4331 21.8999C92.5836 26.3732 93.2253 30.7153 95.2377 34.7949C95.8466 36.0308 95.945 37.1501 95.6096 38.4516C94.9643 40.9526 94.4357 43.4791 93.8086 46.1988C96.5137 45.5754 99.0731 45.0285 101.607 44.3868C102.857 44.0697 103.933 44.1754 105.14 44.7332C112.282 48.0253 119.256 47.6352 125.99 43.5228C126.223 43.3806 126.449 43.2239 126.686 43.0926C127.871 42.44 128.935 42.6296 129.566 43.603C130.23 44.6238 129.996 45.8087 128.899 46.5743C126.336 48.368 123.521 49.6221 120.474 50.3367C119.5 50.5664 118.512 50.7377 117.375 50.9674C117.389 55.6267 115.796 59.7099 112.336 63.0822C117.16 69.8414 117.218 76.6298 112.362 83.502C112.628 83.8082 112.92 84.14 113.211 84.4718C116.664 88.431 117.962 92.9955 117.032 98.1688C116.748 99.7474 115.898 100.353 114.341 100.17C113.229 100.043 112.613 99.288 112.828 97.7349C113.193 95.0954 113.036 92.5726 111.855 90.1555C111.654 89.7471 111.439 89.3425 111.199 88.956C109.711 86.5681 109.689 86.7248 107.145 87.6982C105.012 88.5112 102.711 88.9414 100.447 89.3352C99.0147 89.5831 97.8627 88.4821 97.8189 87.1842C97.7752 85.9337 98.7413 85.015 100.211 84.9165C106.678 84.479 111.301 80.1151 111.636 73.7059C111.873 69.1815 109.288 64.4494 104.031 62.5062C102.773 62.0395 101.388 61.89 100.054 61.6567C98.7158 61.4234 97.8772 60.6031 97.9173 59.4438C97.9574 58.2261 98.9199 57.3438 100.32 57.3584C103.047 57.3803 105.679 57.9235 108.009 59.3745C109.026 60.0088 109.576 59.7974 110.273 58.9698C111.921 57.0157 112.73 54.7335 113.003 52.2471C113.036 51.9408 112.566 51.3138 112.271 51.2737C109.132 50.8653 106.149 49.9648 103.269 48.6669C102.985 48.5393 102.569 48.6196 102.234 48.6925C98.7777 49.4654 95.3252 50.2601 91.8691 51.044C89.7837 51.5143 88.4785 50.2237 88.9452 48.1493C89.7254 44.6931 90.5274 41.2442 91.2894 37.7844C91.3805 37.3761 91.3951 36.8657 91.2311 36.4975C89.6707 33.0522 88.8249 29.4503 88.7775 25.666C88.7775 25.5311 88.7629 25.3925 88.7192 25.2649C88.6973 25.1957 88.6025 25.1483 88.3983 24.9587C88.278 25.3524 88.165 25.6587 88.0921 25.9722C87.3083 29.2497 85.7151 32.0533 83.2141 34.3319C81.672 35.7355 80.4032 35.8813 79.4189 34.7621C78.5147 33.734 78.7991 32.458 80.2282 31.1273C86.8671 24.9514 84.5375 14.1381 75.9773 11.4184C68.252 8.9612 60.822 14.7215 60.8111 23.2306C60.7892 40.4567 60.8038 57.6792 60.8038 74.9053C60.8038 83.8811 60.7746 92.8606 60.8111 101.836C60.8439 109.489 60.8584 117.141 61.059 124.79C61.2121 130.536 65.5396 134.918 71.2816 135.563C77.8075 136.296 82.8969 131.469 83.7281 126.318C80.2064 125.563 76.9361 124.181 74.1836 121.578C72.6816 123.193 71.0009 124.356 68.8244 124.681C67.1255 124.932 65.7802 124.232 65.5359 122.836C65.3026 121.491 66.276 120.441 67.9895 120.196C69.6192 119.963 70.753 118.968 70.9389 117.44C71.092 116.161 71.4748 115.081 72.8529 114.782C74.2492 114.48 74.9747 115.439 75.7148 116.43C78.7845 120.535 82.9553 122.413 87.99 121.72C93.3237 120.984 96.882 117.852 98.6283 112.708C99.0038 111.603 98.9527 111.013 97.5674 110.699C95.9486 110.331 94.4174 109.573 92.7039 108.927C92.5472 109.194 92.3357 109.569 92.1097 109.941C90.0061 113.423 87.002 115.428 82.8641 115.555C81.249 115.606 80.3631 114.939 80.2574 113.616C80.1407 112.147 80.8735 111.352 82.5068 111.162C85.4672 110.82 87.6911 109.452 88.6499 106.518C89.5322 103.812 88.8285 101.388 86.6557 99.6417C85.6239 98.8104 84.1802 98.3183 82.8495 98.0667C81.0267 97.724 80.1225 97.0131 80.2538 95.4199C80.3704 94.0455 81.5334 93.2835 83.287 93.433C88.289 93.8522 92.4342 97.6511 93.3638 102.591C93.4695 103.156 93.8159 103.798 94.2534 104.155C97.921 107.156 103.386 107.48 107.436 105.005C107.863 104.742 108.264 104.436 108.701 104.192C109.686 103.648 110.648 103.616 111.388 104.574C112.194 105.617 112.063 106.97 111.071 107.75C109.106 109.296 106.868 110.302 104.403 110.71C103.612 110.841 103.415 111.166 103.255 111.895C101.592 119.504 96.9804 124.218 89.3389 125.902C88.7192 126.037 88.2051 126.081 88.0265 126.956C86.6119 133.934 81.9162 138.469 74.8581 139.799C74.6867 139.832 74.5263 139.938 74.3623 140.007C73.0862 140.007 71.8102 140.007 70.5342 140.007C70.279 139.923 70.0275 139.807 69.765 139.759C65.937 139.081 62.7907 137.222 60.2934 134.265C59.7137 133.58 59.2142 132.832 58.6309 132.052C56.4107 135.603 53.4357 138.09 49.4765 139.304C48.6635 139.552 47.8395 139.774 47.0229 140.007C45.6557 140.007 44.2886 140.007 42.9214 140.007C42.6699 139.923 42.422 139.803 42.1631 139.759C35.6992 138.629 30.5442 133.645 29.3228 127.207C29.1515 126.299 28.7723 126.059 27.9776 125.884C20.4163 124.221 15.7753 119.595 14.1128 112.026C13.9378 111.235 13.7009 110.867 12.8004 110.67C6.7047 109.317 2.647 105.635 0.674656 99.6964C0.390289 98.8433 0.215293 97.95 -0.0107422 97.0751C-0.0107422 95.7079 -0.0107422 94.3408 -0.0107422 92.9736C0.838714 89.3935 2.21316 86.0832 5.01308 83.564C0.127796 76.6845 0.14967 69.9034 4.88913 63.2353C3.91207 61.8828 2.79283 60.6942 2.10743 59.2943C1.22152 57.486 0.681947 55.5027 -0.00709645 53.596C0.000195018 52.2288 0.000195018 50.8617 0.000195018 49.4945Z" fill="white"/>
<path d="M116.547 28.4768C116.547 30.2887 116.562 32.1955 116.544 34.1058C116.529 35.6516 115.69 36.6214 114.44 36.5995C113.193 36.5776 112.373 35.6006 112.362 34.0548C112.344 31.6413 112.344 29.2278 112.362 26.8143C112.377 25.1337 113.025 24.4628 114.721 24.2879C118.027 23.9524 120.171 21.5718 120.062 18.3672C119.96 15.4251 117.553 13.0736 114.575 13.0006C111.527 12.9277 109.154 15.1699 108.847 18.4109C108.713 19.8583 107.859 20.7734 106.678 20.7442C105.417 20.715 104.629 19.7161 104.658 18.1812C104.75 12.9788 109.475 8.57108 114.746 8.76795C120.262 8.97575 124.721 13.7954 124.287 19.1474C123.934 23.4712 121.688 26.4097 117.619 27.9482C117.32 28.0612 117.021 28.1669 116.726 28.2836C116.689 28.3018 116.664 28.3492 116.547 28.4768Z" fill="white"/>
<path d="M97.7644 72.922C97.7353 76.2068 96.7874 78.6968 94.8515 80.7895C93.7286 81.9999 92.5365 82.1603 91.4974 81.2926C90.4876 80.4504 90.4839 79.1708 91.4828 77.9094C93.9328 74.8141 93.9364 71.7845 91.4974 68.744C90.473 67.468 90.4985 66.2612 91.574 65.3899C92.5255 64.6133 93.8343 64.8102 94.8296 65.9185C96.7218 68.0294 97.6441 70.534 97.7644 72.922Z" fill="white"/>
<path d="M19.6286 72.8965C19.7453 70.4101 20.664 67.9019 22.6145 65.8165C23.5988 64.7629 24.9696 64.6389 25.8811 65.4847C26.8107 66.3451 26.8253 67.5081 25.9285 68.6529C23.3619 71.9304 23.3436 74.7121 25.8774 77.9131C26.8363 79.1271 26.8253 80.3229 25.8483 81.1906C24.8639 82.0583 23.6827 81.9161 22.5963 80.8005C20.7697 78.9156 19.6104 75.9662 19.6286 72.8965Z" fill="white"/>
<path d="M79.9073 72.4845C79.9291 74.3511 79.1672 75.3683 77.924 75.5032C76.7209 75.6308 75.7037 74.7595 75.5579 73.2246C75.2699 70.1512 73.8335 68.0039 70.8659 67.005C70.3153 66.819 69.7102 66.8008 69.1268 66.7133C67.5373 66.48 66.5785 65.5248 66.7097 64.2925C66.8519 62.9618 67.9748 62.1926 69.6299 62.291C74.2965 62.5754 78.5438 66.1409 79.5974 70.6835C79.7614 71.3944 79.8453 72.1163 79.9073 72.4845Z" fill="white"/>
<path d="M33.2892 53.7527C33.3804 48.2331 38.4807 43.2202 44.015 43.2129C45.3347 43.2093 46.4029 44.0952 46.5014 45.2691C46.5962 46.4175 45.6446 47.4493 44.3176 47.6279C39.9901 48.2185 38.4261 49.757 37.6641 54.1829C37.398 55.7324 36.5339 56.5271 35.2543 56.4032C34.0001 56.2829 33.2637 55.2912 33.2892 53.7527Z" fill="white"/>
<path d="M47.8868 84.3041C42.4437 84.2275 37.4235 79.138 37.4126 73.6877C37.409 72.2403 38.273 71.2013 39.5308 71.1393C40.7485 71.0773 41.751 71.9997 41.8312 73.5163C41.9406 75.6163 42.7135 77.3954 44.427 78.5292C45.5207 79.2547 46.8806 79.6667 48.1821 79.962C49.8336 80.3411 50.7305 81.0448 50.6357 82.3025C50.5336 83.5931 49.5274 84.3259 47.8868 84.3041Z" fill="white"/>
<path d="M84.0234 53.6762C84.0489 55.3532 83.3453 56.3194 82.0292 56.4069C80.7058 56.498 79.9511 55.7105 79.7068 53.9825C79.149 50.0451 77.133 48.1055 73.1044 47.6316C71.7409 47.4712 70.8112 46.5269 70.855 45.3421C70.8987 44.1535 71.9341 43.2348 73.2575 43.2093C78.7225 43.1109 83.9395 48.1784 84.0234 53.6762Z" fill="white"/>
<path d="M49.4802 23.6899C50.9349 23.6753 51.8828 24.3935 52.0067 25.6039C52.138 26.8362 51.2484 27.7768 49.7682 27.9846C47.7959 28.258 46.8261 29.2278 46.5381 31.222C46.3084 32.8006 45.3897 33.61 44.008 33.4459C42.721 33.2964 41.9445 32.1152 42.1486 30.6168C42.6919 26.632 45.7689 23.7227 49.4802 23.6899Z" fill="white"/>
<path d="M67.9167 23.69C71.7156 23.7483 75.0879 27.0914 75.2337 30.9377C75.2847 32.2465 74.541 33.271 73.4181 33.4387C72.1239 33.6319 71.063 32.972 70.8953 31.5648C70.6182 29.2424 69.4187 28.1122 67.111 27.919C65.9735 27.8242 65.1788 26.6066 65.3319 25.5493C65.5142 24.3426 66.4511 23.6681 67.9167 23.69Z" fill="white"/>
<path d="M116.317 40.4822C116.346 41.5541 115.548 42.3999 114.491 42.4145C113.444 42.429 112.591 41.5905 112.613 40.5333C112.639 39.4031 113.291 38.7906 114.37 38.6776C115.409 38.5718 116.288 39.425 116.317 40.4822Z" fill="white"/>
</g>
<path d="M169.282 53.9155L175.652 64.6801H175.899L182.299 53.9155H189.84L180.201 69.7077L190.056 85.5H182.376L175.899 74.7199H175.652L169.175 85.5H161.525L171.411 69.7077L161.71 53.9155H169.282ZM203.508 85.9627C201.071 85.9627 198.974 85.4692 197.216 84.4821C195.468 83.4848 194.121 82.0763 193.175 80.2565C192.229 78.4264 191.756 76.2621 191.756 73.7638C191.756 71.3271 192.229 69.1885 193.175 67.3482C194.121 65.5078 195.453 64.0735 197.17 63.0454C198.897 62.0172 200.922 61.5032 203.246 61.5032C204.809 61.5032 206.263 61.7551 207.61 62.2588C208.967 62.7524 210.15 63.4978 211.157 64.4951C212.175 65.4924 212.967 66.7467 213.532 68.2581C214.098 69.7591 214.381 71.5173 214.381 73.5324V75.3368H194.378V71.2654H208.196C208.196 70.3195 207.991 69.4815 207.579 68.7516C207.168 68.0216 206.598 67.451 205.868 67.0397C205.148 66.6182 204.31 66.4074 203.354 66.4074C202.357 66.4074 201.472 66.6387 200.701 67.1014C199.94 67.5538 199.344 68.1655 198.912 68.9366C198.48 69.6975 198.259 70.5457 198.249 71.4813V75.3522C198.249 76.5243 198.465 77.537 198.897 78.3904C199.339 79.2438 199.961 79.9018 200.763 80.3644C201.565 80.8271 202.516 81.0584 203.616 81.0584C204.346 81.0584 205.014 80.9556 205.621 80.75C206.227 80.5444 206.747 80.2359 207.179 79.8247C207.61 79.4134 207.939 78.9096 208.166 78.3133L214.242 78.7143C213.933 80.1742 213.301 81.4491 212.345 82.539C211.399 83.6185 210.176 84.4616 208.674 85.0682C207.184 85.6645 205.462 85.9627 203.508 85.9627ZM240.116 61.8116L231.835 85.5H224.432L216.15 61.8116H223.09L228.01 78.7605H228.257L233.161 61.8116H240.116ZM253.51 85.9627C251.074 85.9627 248.976 85.4692 247.218 84.4821C245.47 83.4848 244.124 82.0763 243.178 80.2565C242.232 78.4264 241.759 76.2621 241.759 73.7638C241.759 71.3271 242.232 69.1885 243.178 67.3482C244.124 65.5078 245.455 64.0735 247.172 63.0454C248.899 62.0172 250.925 61.5032 253.248 61.5032C254.811 61.5032 256.266 61.7551 257.613 62.2588C258.97 62.7524 260.152 63.4978 261.16 64.4951C262.178 65.4924 262.969 66.7467 263.535 68.2581C264.1 69.7591 264.383 71.5173 264.383 73.5324V75.3368H244.381V71.2654H258.199C258.199 70.3195 257.993 69.4815 257.582 68.7516C257.171 68.0216 256.6 67.451 255.87 67.0397C255.15 66.6182 254.312 66.4074 253.356 66.4074C252.359 66.4074 251.475 66.6387 250.704 67.1014C249.943 67.5538 249.346 68.1655 248.915 68.9366C248.483 69.6975 248.262 70.5457 248.252 71.4813V75.3522C248.252 76.5243 248.467 77.537 248.899 78.3904C249.341 79.2438 249.963 79.9018 250.765 80.3644C251.567 80.8271 252.518 81.0584 253.618 81.0584C254.348 81.0584 255.017 80.9556 255.623 80.75C256.23 80.5444 256.749 80.2359 257.181 79.8247C257.613 79.4134 257.942 78.9096 258.168 78.3133L264.244 78.7143C263.936 80.1742 263.303 81.4491 262.347 82.539C261.401 83.6185 260.178 84.4616 258.677 85.0682C257.186 85.6645 255.464 85.9627 253.51 85.9627ZM275.24 71.8051V85.5H268.67V61.8116H274.932V65.991H275.209C275.734 64.6133 276.613 63.5235 277.847 62.7215C279.08 61.9093 280.576 61.5032 282.334 61.5032C283.979 61.5032 285.414 61.863 286.637 62.5827C287.861 63.3024 288.812 64.3306 289.49 65.6671C290.169 66.9934 290.508 68.5768 290.508 70.4172V85.5H283.938V71.5892C283.949 70.1396 283.578 69.0086 282.828 68.1964C282.077 67.3739 281.044 66.9626 279.728 66.9626C278.844 66.9626 278.062 67.1528 277.384 67.5332C276.716 67.9136 276.191 68.4688 275.811 69.1988C275.441 69.9185 275.251 70.7873 275.24 71.8051ZM317.782 74.5194H323.458L326.311 78.1899L329.117 81.4594L334.407 88.0909H328.177L324.537 83.6185L322.671 80.9659L317.782 74.5194ZM334.885 69.7077C334.885 73.152 334.232 76.0822 332.927 78.4984C331.631 80.9145 329.863 82.76 327.621 84.0349C325.39 85.2995 322.882 85.9318 320.095 85.9318C317.289 85.9318 314.77 85.2944 312.539 84.0195C310.308 82.7446 308.544 80.8991 307.249 78.4829C305.953 76.0668 305.306 73.1417 305.306 69.7077C305.306 66.2635 305.953 63.3333 307.249 60.9171C308.544 58.501 310.308 56.6606 312.539 55.396C314.77 54.1211 317.289 53.4837 320.095 53.4837C322.882 53.4837 325.39 54.1211 327.621 55.396C329.863 56.6606 331.631 58.501 332.927 60.9171C334.232 63.3333 334.885 66.2635 334.885 69.7077ZM328.115 69.7077C328.115 67.4767 327.781 65.5952 327.113 64.0632C326.455 62.5313 325.524 61.3695 324.321 60.5778C323.118 59.7862 321.71 59.3903 320.095 59.3903C318.481 59.3903 317.073 59.7862 315.87 60.5778C314.667 61.3695 313.731 62.5313 313.063 64.0632C312.405 65.5952 312.076 67.4767 312.076 69.7077C312.076 71.9388 312.405 73.8203 313.063 75.3522C313.731 76.8842 314.667 78.046 315.87 78.8376C317.073 79.6293 318.481 80.0251 320.095 80.0251C321.71 80.0251 323.118 79.6293 324.321 78.8376C325.524 78.046 326.455 76.8842 327.113 75.3522C327.781 73.8203 328.115 71.9388 328.115 69.7077ZM354.899 75.4139V61.8116H361.469V85.5H355.162V81.1972H354.915C354.38 82.5852 353.491 83.7008 352.247 84.5438C351.013 85.3869 349.507 85.8084 347.728 85.8084C346.145 85.8084 344.752 85.4486 343.549 84.7289C342.346 84.0092 341.405 82.9862 340.726 81.6599C340.058 80.3336 339.719 78.7451 339.709 76.8945V61.8116H346.278V75.7224C346.289 77.1206 346.664 78.2259 347.404 79.0381C348.144 79.8504 349.137 80.2565 350.381 80.2565C351.172 80.2565 351.913 80.0766 352.601 79.7167C353.29 79.3466 353.846 78.8017 354.267 78.082C354.699 77.3623 354.91 76.4729 354.899 75.4139ZM366.724 85.5V61.8116H373.294V85.5H366.724ZM370.025 58.758C369.048 58.758 368.21 58.4342 367.511 57.7864C366.822 57.1284 366.478 56.3419 366.478 55.4268C366.478 54.5221 366.822 53.7458 367.511 53.0981C368.21 52.4401 369.048 52.1111 370.025 52.1111C371.001 52.1111 371.834 52.4401 372.523 53.0981C373.222 53.7458 373.572 54.5221 373.572 55.4268C373.572 56.3419 373.222 57.1284 372.523 57.7864C371.834 58.4342 371.001 58.758 370.025 58.758ZM378.434 85.5V81.5828L390.031 67.2248V67.0551H378.835V61.8116H397.943V66.0835L387.055 80.0868V80.2565H398.344V85.5H378.434Z" fill="white"/>
<defs>
<clipPath id="clip0_408_1404">
<rect width="140.011" height="140" fill="white"/>
</clipPath>
</defs>
</svg>
