<svg width="269" height="80" viewBox="0 0 269 80" fill="none" xmlns="http://www.w3.org/2000/svg">
<g clip-path="url(#clip0_1169_735)">
<path d="M-0.000204642 28.2826C0.226872 27.516 0.381035 26.7181 0.695609 25.9889C2.05807 22.8203 4.51009 21.0141 7.90583 20.4141C8.04957 19.8078 8.14332 19.187 8.34748 18.6058C9.62244 14.9413 12.1411 12.6559 15.9619 11.8747C16.4723 11.7705 16.6785 11.5893 16.7743 11.0539C16.9014 10.3477 17.1764 9.6581 17.4639 8.99145C17.8201 8.16647 18.3993 7.94565 19.1534 8.26022C19.8201 8.5373 20.0284 9.1352 19.6617 9.95393C18.718 12.0685 18.7472 14.1538 19.9076 16.1579C20.2909 16.8204 20.8596 17.385 21.395 17.9475C22.0242 18.6079 22.1554 19.3287 21.6638 19.8745C21.1534 20.4391 20.4492 20.4287 19.7284 19.8162C18.0368 18.3808 17.0327 16.5454 16.6223 14.3851C14.2827 13.8892 10.7099 17.3412 10.4974 20.2495C11.5099 20.6516 12.5286 21.0099 13.5036 21.462C14.014 21.6974 14.4765 22.0661 14.916 22.4286C15.6014 22.9911 15.7014 23.6848 15.239 24.2661C14.7744 24.8494 14.064 24.9202 13.3765 24.3681C11.9495 23.2203 10.3474 22.7286 8.51831 22.8348C5.64339 22.9994 2.99138 25.3785 2.54347 28.2222C2.16224 30.6409 2.86638 32.6638 4.64342 34.3741C6.16421 33.4117 7.75166 32.8096 9.51411 32.7742C10.462 32.7554 11.0328 33.1721 11.1057 33.9054C11.1766 34.6179 10.6537 35.1658 9.71203 35.2408C6.9621 35.4595 4.90591 36.7157 3.78302 39.2678C1.89141 43.5635 4.92882 48.3196 9.66411 48.5467C10.8328 48.6029 11.5057 49.5758 10.887 50.405C10.6516 50.7195 10.1224 50.957 9.71411 50.9779C7.88708 51.0695 6.24962 50.43 4.66008 49.4321C3.51636 50.4112 2.8018 51.6508 2.56014 53.1216C1.87474 57.3006 4.70591 60.8255 8.92871 61.0047C10.5537 61.0734 12.062 60.5464 13.3265 59.4797C13.5203 59.3172 13.6598 59.0256 13.7119 58.7693C14.3369 55.7569 16.4327 53.7986 19.4534 53.4382C20.3867 53.3257 21.07 53.7549 21.1575 54.5069C21.2575 55.359 20.7513 55.8777 19.7326 55.9694C17.6431 56.1569 16.1264 57.7631 16.1452 59.7693C16.1639 61.7651 17.7056 63.3838 19.793 63.5359C20.3992 63.5796 20.8721 63.7671 21.1013 64.3359C21.4638 65.2317 20.9055 66.0337 19.9097 66.0358C17.5035 66.04 15.7764 64.8504 14.5098 62.888C14.3556 62.6484 14.2369 62.388 14.1182 62.1692C12.9411 62.6151 11.787 63.0526 10.5183 63.5338C10.4662 64.3359 10.8162 65.1421 11.2807 65.8775C14.3452 70.7294 20.5263 70.944 23.9408 66.3233C24.3304 65.7962 24.7741 65.4317 25.4449 65.5942C26.1407 65.7629 26.4095 66.2879 26.4866 66.9795C26.5949 67.9524 27.2324 68.542 28.2282 68.6837C29.1927 68.8212 29.7302 69.4336 29.5823 70.2253C29.4365 71.0003 28.6927 71.4065 27.7615 71.2544C26.5282 71.0544 25.5241 70.4607 24.6887 69.4586C23.1221 70.8899 21.32 71.7586 19.0909 72.169C19.4076 72.9336 19.6222 73.6752 20.0013 74.321C21.4429 76.7647 24.3095 77.9855 27.0324 77.3793C29.7885 76.7647 31.7822 74.5773 32.1385 71.7523C32.2135 71.1607 32.2635 70.5628 32.2635 69.967C32.2781 51.0112 32.2864 32.0554 32.2906 13.0997C32.2906 9.76643 30.2552 7.11858 27.0824 6.39569C25.7699 6.09569 24.4574 6.20611 23.1721 6.68526C22.0596 7.09983 21.1784 6.49568 21.4179 5.45404C21.5075 5.0603 21.9471 4.60615 22.3388 4.44365C26.0741 2.88953 30.501 4.18324 32.926 7.48732C33.1218 7.75398 33.3072 8.02689 33.5384 8.35188C34.6572 6.54776 36.1217 5.22905 38.0446 4.44782C43.2653 2.32496 49.2505 5.56862 50.2984 11.1018C50.3796 11.531 50.4421 11.8872 51.0588 11.7851C51.1359 11.4997 51.2213 11.1768 51.3067 10.856C53.0983 4.16033 59.3002 -0.333308 66.2584 0.0229324C72.9707 0.366674 78.6934 5.49154 79.7997 12.2101C80.3746 15.7017 79.7288 18.9933 77.9393 22.0494C77.5018 22.7994 76.9039 22.9994 76.2477 22.6619C75.5789 22.3182 75.4352 21.6682 75.8977 20.8599C76.7727 19.3266 77.3143 17.6975 77.5393 15.9392C78.3455 9.63102 73.6436 3.41868 67.3583 2.53328C60.5877 1.57914 54.667 5.78945 53.39 12.5143C52.9046 15.0705 53.2712 17.5516 54.4212 19.8828C54.7691 20.5891 54.8254 21.2286 54.6337 21.9724C54.265 23.4015 53.9629 24.8452 53.6046 26.3993C55.1503 26.0431 56.6128 25.7306 58.0607 25.3639C58.7752 25.1827 59.3898 25.2431 60.0794 25.5619C64.1605 27.4431 68.1458 27.2201 71.9936 24.8702C72.127 24.789 72.2561 24.6994 72.3915 24.6244C73.0686 24.2515 73.6769 24.3598 74.0373 24.916C74.4165 25.4994 74.2831 26.1764 73.6561 26.6139C72.1915 27.6389 70.5833 28.3555 68.8416 28.7639C68.2854 28.8951 67.7208 28.993 67.0709 29.1243C67.0792 31.7867 66.1688 34.12 64.1918 36.047C66.9479 39.9094 66.9813 43.7885 64.2063 47.7155C64.3584 47.8904 64.5251 48.08 64.6917 48.2696C66.6646 50.532 67.4063 53.1403 66.875 56.0965C66.7125 56.9985 66.2271 57.3444 65.3376 57.2402C64.7022 57.1673 64.3501 56.736 64.473 55.8486C64.6813 54.3403 64.5918 52.8987 63.9168 51.5174C63.8022 51.2841 63.6793 51.0529 63.5418 50.832C62.6918 49.4675 62.6793 49.5571 61.2252 50.1133C60.0065 50.5779 58.6919 50.8237 57.3982 51.0487C56.5795 51.1904 55.9212 50.5612 55.8962 49.8196C55.8712 49.105 56.4232 48.58 57.2628 48.5238C60.9585 48.2738 63.6001 45.7801 63.7918 42.1177C63.9272 39.5323 62.4501 36.8282 59.4461 35.7178C58.7273 35.4512 57.9357 35.3658 57.1732 35.2324C56.4086 35.0991 55.9295 34.6304 55.9524 33.9679C55.9753 33.2721 56.5253 32.7679 57.3253 32.7763C58.8836 32.7888 60.3877 33.0992 61.7189 33.9283C62.3001 34.2908 62.6147 34.17 63.0126 33.6971C63.9543 32.5804 64.4168 31.2763 64.573 29.8555C64.5917 29.6805 64.323 29.3222 64.1543 29.2993C62.3606 29.0659 60.6564 28.5514 59.0107 27.8097C58.8482 27.7368 58.6107 27.7826 58.419 27.8243C56.4441 28.266 54.4712 28.7201 52.4963 29.168C51.3046 29.4368 50.5588 28.6993 50.8255 27.5139C51.2713 25.5389 51.7296 23.5682 52.165 21.5911C52.2171 21.3578 52.2254 21.0661 52.1317 20.8557C51.24 18.887 50.7567 16.8287 50.7296 14.6663C50.7296 14.5892 50.7213 14.5101 50.6963 14.4371C50.6838 14.3976 50.6296 14.3705 50.513 14.2621C50.4442 14.4871 50.3796 14.6621 50.338 14.8413C49.8901 16.7142 48.9797 18.3162 47.5506 19.6183C46.6693 20.4203 45.9444 20.5037 45.3819 19.8641C44.8652 19.2766 45.0277 18.5475 45.8444 17.7871C49.638 14.258 48.3068 8.07897 43.4153 6.52485C39.0008 5.12072 34.7551 8.4123 34.7488 13.2747C34.7363 23.1182 34.7447 32.9596 34.7447 42.8031C34.7447 47.9321 34.728 53.0632 34.7488 58.1923C34.7676 62.5651 34.7759 66.9379 34.8905 71.3086C34.978 74.5918 37.4508 77.0959 40.732 77.4647C44.4611 77.8834 47.3693 75.1252 47.8443 72.1815C45.8319 71.7503 43.9632 70.9607 42.3903 69.4732C41.532 70.3961 40.5716 71.0607 39.3279 71.2461C38.3571 71.3898 37.5883 70.9898 37.4488 70.192C37.3154 69.4232 37.8717 68.8232 38.8508 68.6837C39.782 68.5503 40.4299 67.9816 40.5362 67.1087C40.6237 66.3775 40.8424 65.7608 41.6299 65.59C42.4278 65.4171 42.8424 65.965 43.2653 66.5316C45.0194 68.8774 47.4026 69.9503 50.2796 69.5545C53.3275 69.1336 55.3608 67.3441 56.3586 64.4046C56.5732 63.7734 56.5441 63.4359 55.7524 63.2567C54.8274 63.0463 53.9525 62.613 52.9733 62.2442C52.8837 62.3963 52.7629 62.6109 52.6337 62.8234C51.4317 64.8129 49.7151 65.9587 47.3506 66.0316C46.4277 66.0608 45.9214 65.6796 45.861 64.9233C45.7944 64.0838 46.2131 63.6296 47.1464 63.5213C48.838 63.3255 50.1088 62.5442 50.6567 60.8672C51.1609 59.3214 50.7588 57.936 49.5172 56.9381C48.9276 56.4631 48.1026 56.1819 47.3422 56.0382C46.3006 55.8423 45.7839 55.4361 45.8589 54.5257C45.9256 53.7403 46.5902 53.3049 47.5922 53.3903C50.4505 53.6299 52.8192 55.8007 53.3504 58.6235C53.4108 58.9464 53.6087 59.3131 53.8587 59.5172C55.9545 61.2318 59.0773 61.4172 61.3918 60.0026C61.6356 59.8526 61.8647 59.6776 62.1147 59.5381C62.6772 59.2277 63.2272 59.2089 63.6501 59.7568C64.1105 60.3526 64.0355 61.1255 63.4689 61.5713C62.346 62.4547 61.0668 63.0296 59.6586 63.263C59.2065 63.338 59.094 63.5234 59.0023 63.94C58.0523 68.2878 55.417 70.9815 51.0505 71.944C50.6963 72.0211 50.4026 72.0461 50.3005 72.5461C49.4922 76.5335 46.8089 79.1251 42.7757 79.8855C42.6778 79.9042 42.5861 79.9646 42.4924 80.0042C41.7632 80.0042 41.0341 80.0042 40.3049 80.0042C40.1591 79.9563 40.0154 79.8896 39.8654 79.8625C37.6779 79.4751 35.88 78.4126 34.453 76.723C34.1218 76.3314 33.8364 75.9043 33.503 75.4585C32.2343 77.4876 30.5344 78.9084 28.2719 79.6021C27.8074 79.7438 27.3365 79.8709 26.8699 80.0042C26.0887 80.0042 25.3074 80.0042 24.5262 80.0042C24.3825 79.9563 24.2408 79.8875 24.0929 79.8625C20.3992 79.2167 17.4535 76.3689 16.7556 72.6898C16.6577 72.1711 16.441 72.0336 15.9869 71.9336C11.6661 70.9836 9.01413 68.3399 8.06415 64.015C7.96416 63.563 7.82874 63.3525 7.31418 63.2401C3.83094 62.4672 1.51225 60.363 0.385201 56.9694C0.222706 56.4819 0.122709 55.9715 -0.00645447 55.4715C-0.00645447 54.6903 -0.00645447 53.909 -0.00645447 53.1278C0.478949 51.082 1.26434 49.1904 2.8643 47.7509C0.07271 43.8197 0.0852096 39.9448 2.79347 36.1345C2.23515 35.3616 1.59558 34.6825 1.20393 33.8825C0.697693 32.8492 0.389368 31.7159 -0.00437119 30.6263C-0.000204642 29.8451 -0.000204642 29.0639 -0.000204642 28.2826Z" fill="url(#paint0_linear_1169_735)"/>
<path d="M66.5981 16.2724C66.5981 17.3078 66.6065 18.3974 66.5961 19.489C66.5877 20.3723 66.1086 20.9265 65.394 20.914C64.6815 20.9015 64.2128 20.3432 64.2065 19.4598C64.1961 18.0807 64.1961 16.7016 64.2065 15.3225C64.2149 14.3621 64.5857 13.9787 65.5544 13.8787C67.444 13.6871 68.6689 12.3267 68.6064 10.4955C68.5481 8.81429 67.1731 7.47057 65.4711 7.42891C63.7295 7.38724 62.3733 8.66846 62.1983 10.5205C62.1212 11.3476 61.6337 11.8705 60.9587 11.8538C60.2379 11.8371 59.7879 11.2663 59.8046 10.3892C59.8567 7.41641 62.5566 4.89772 65.569 5.01022C68.721 5.12897 71.2689 7.88306 71.0209 10.9413C70.8189 13.4121 69.5356 15.0912 67.2106 15.9704C67.0398 16.0349 66.869 16.0953 66.7002 16.162C66.6794 16.1724 66.6648 16.1995 66.5981 16.2724Z" fill="url(#paint1_linear_1169_735)"/>
<path d="M55.8652 41.6697C55.8485 43.5468 55.3068 44.9697 54.2006 46.1655C53.559 46.8571 52.8777 46.9488 52.284 46.4529C51.7069 45.9717 51.7048 45.2405 52.2757 44.5197C53.6756 42.751 53.6777 41.0198 52.284 39.2823C51.6986 38.5532 51.7132 37.8636 52.3277 37.3657C52.8715 36.9219 53.6194 37.0344 54.1881 37.6678C55.2693 38.874 55.7964 40.3052 55.8652 41.6697Z" fill="url(#paint2_linear_1169_735)"/>
<path d="M11.2158 41.6552C11.2825 40.2344 11.8075 38.8011 12.922 37.6095C13.4845 37.0074 14.2678 36.9366 14.7886 37.4199C15.3199 37.9115 15.3282 38.5761 14.8157 39.2303C13.3491 41.1031 13.3387 42.6927 14.7866 44.5218C15.3345 45.2155 15.3282 45.8988 14.7699 46.3947C14.2074 46.8905 13.5324 46.8092 12.9116 46.1717C11.8679 45.0947 11.2054 43.4093 11.2158 41.6552Z" fill="url(#paint3_linear_1169_735)"/>
<path d="M45.6611 41.4198C45.6736 42.4864 45.2382 43.0676 44.5278 43.1447C43.8403 43.2176 43.259 42.7197 43.1757 41.8427C43.0111 40.0865 42.1903 38.8594 40.4945 38.2886C40.18 38.1823 39.8341 38.1719 39.5008 38.1219C38.5925 37.9886 38.0446 37.4428 38.1196 36.7386C38.2008 35.9782 38.8425 35.5387 39.7883 35.5949C42.4549 35.7574 44.8819 37.7948 45.484 40.3906C45.5777 40.7969 45.6256 41.2093 45.6611 41.4198Z" fill="url(#paint4_linear_1169_735)"/>
<path d="M19.0222 30.7159C19.0743 27.5618 21.9888 24.6973 25.1512 24.6931C25.9053 24.691 26.5157 25.1973 26.572 25.8681C26.6262 26.5243 26.0824 27.1139 25.3241 27.216C22.8513 27.5535 21.9575 28.4326 21.5221 30.9617C21.3701 31.8471 20.8763 32.3013 20.1451 32.2304C19.4284 32.1617 19.0076 31.595 19.0222 30.7159Z" fill="url(#paint5_linear_1169_735)"/>
<path d="M27.3636 48.1738C24.2533 48.1301 21.3846 45.2218 21.3784 42.1073C21.3763 41.2802 21.87 40.6865 22.5888 40.6511C23.2846 40.6157 23.8575 41.1427 23.9033 42.0094C23.9658 43.2094 24.4075 44.226 25.3866 44.8739C26.0116 45.2885 26.7886 45.5239 27.5324 45.6926C28.4761 45.9093 28.9886 46.3114 28.9344 47.0301C28.8761 47.7676 28.3011 48.1863 27.3636 48.1738Z" fill="url(#paint6_linear_1169_735)"/>
<path d="M48.0131 30.6721C48.0276 31.6304 47.6256 32.1825 46.8735 32.2325C46.1173 32.2845 45.686 31.8346 45.5465 30.8471C45.2277 28.5971 44.0757 27.4888 41.7737 27.218C40.9945 27.1263 40.4633 26.5868 40.4883 25.9097C40.5133 25.2306 41.1049 24.7056 41.8612 24.691C44.984 24.6347 47.9652 27.5305 48.0131 30.6721Z" fill="url(#paint7_linear_1169_735)"/>
<path d="M28.2742 13.5371C29.1054 13.5288 29.6471 13.9392 29.7179 14.6308C29.7929 15.335 29.2846 15.8725 28.4388 15.9912C27.3117 16.1475 26.7576 16.7016 26.593 17.8412C26.4617 18.7432 25.9368 19.2057 25.1472 19.112C24.4118 19.0266 23.9681 18.3516 24.0847 17.4953C24.3951 15.2183 26.1534 13.5559 28.2742 13.5371Z" fill="url(#paint8_linear_1169_735)"/>
<path d="M38.809 13.5372C40.9798 13.5705 42.9068 15.4809 42.9901 17.6787C43.0193 18.4266 42.5943 19.012 41.9527 19.1078C41.2131 19.2183 40.6069 18.8412 40.511 18.037C40.3527 16.71 39.6673 16.0642 38.3486 15.9538C37.6986 15.8996 37.2445 15.2038 37.332 14.5996C37.4361 13.9101 37.9715 13.5247 38.809 13.5372Z" fill="url(#paint9_linear_1169_735)"/>
<path d="M66.4664 23.1329C66.4831 23.7453 66.0268 24.2287 65.4227 24.237C64.8248 24.2453 64.3373 23.7662 64.3498 23.162C64.3644 22.5162 64.7373 22.1662 65.3539 22.1016C65.9477 22.0412 66.4498 22.5287 66.4664 23.1329Z" fill="url(#paint10_linear_1169_735)"/>
</g>
<path d="M97.0488 28.2273L101.742 36.1591H101.924L106.64 28.2273H112.197L105.094 39.8636L112.356 51.5H106.697L101.924 43.5568H101.742L96.9692 51.5H91.3329L98.617 39.8636L91.4692 28.2273H97.0488ZM122.268 51.8409C120.472 51.8409 118.927 51.4773 117.631 50.75C116.343 50.0152 115.351 48.9773 114.654 47.6364C113.957 46.2879 113.608 44.6932 113.608 42.8523C113.608 41.0568 113.957 39.4811 114.654 38.125C115.351 36.7689 116.332 35.7121 117.597 34.9545C118.87 34.197 120.362 33.8182 122.074 33.8182C123.226 33.8182 124.298 34.0038 125.29 34.375C126.29 34.7386 127.161 35.2879 127.904 36.0227C128.654 36.7576 129.237 37.6818 129.654 38.7955C130.071 39.9015 130.279 41.197 130.279 42.6818V44.0114H115.54V41.0114H125.722C125.722 40.3144 125.571 39.697 125.268 39.1591C124.964 38.6212 124.544 38.2008 124.006 37.8977C123.476 37.5871 122.858 37.4318 122.154 37.4318C121.419 37.4318 120.768 37.6023 120.199 37.9432C119.639 38.2765 119.199 38.7273 118.881 39.2955C118.563 39.8561 118.4 40.4811 118.393 41.1705V44.0227C118.393 44.8864 118.552 45.6326 118.87 46.2614C119.196 46.8902 119.654 47.375 120.245 47.7159C120.836 48.0568 121.536 48.2273 122.347 48.2273C122.885 48.2273 123.377 48.1515 123.824 48C124.271 47.8485 124.654 47.6212 124.972 47.3182C125.29 47.0152 125.533 46.6439 125.699 46.2045L130.177 46.5C129.949 47.5758 129.483 48.5152 128.779 49.3182C128.082 50.1136 127.18 50.7348 126.074 51.1818C124.976 51.6212 123.707 51.8409 122.268 51.8409ZM149.242 34.0455L143.14 51.5H137.685L131.583 34.0455H136.697L140.322 46.5341H140.503L144.117 34.0455H149.242ZM159.111 51.8409C157.316 51.8409 155.77 51.4773 154.475 50.75C153.187 50.0152 152.195 48.9773 151.498 47.6364C150.801 46.2879 150.452 44.6932 150.452 42.8523C150.452 41.0568 150.801 39.4811 151.498 38.125C152.195 36.7689 153.176 35.7121 154.441 34.9545C155.714 34.197 157.206 33.8182 158.918 33.8182C160.07 33.8182 161.142 34.0038 162.134 34.375C163.134 34.7386 164.005 35.2879 164.748 36.0227C165.498 36.7576 166.081 37.6818 166.498 38.7955C166.914 39.9015 167.123 41.197 167.123 42.6818V44.0114H152.384V41.0114H162.566C162.566 40.3144 162.414 39.697 162.111 39.1591C161.808 38.6212 161.388 38.2008 160.85 37.8977C160.32 37.5871 159.702 37.4318 158.998 37.4318C158.263 37.4318 157.611 37.6023 157.043 37.9432C156.482 38.2765 156.043 38.7273 155.725 39.2955C155.407 39.8561 155.244 40.4811 155.236 41.1705V44.0227C155.236 44.8864 155.395 45.6326 155.714 46.2614C156.039 46.8902 156.498 47.375 157.089 47.7159C157.679 48.0568 158.38 48.2273 159.191 48.2273C159.729 48.2273 160.221 48.1515 160.668 48C161.115 47.8485 161.498 47.6212 161.816 47.3182C162.134 47.0152 162.376 46.6439 162.543 46.2045L167.02 46.5C166.793 47.5758 166.327 48.5152 165.623 49.3182C164.926 50.1136 164.024 50.7348 162.918 51.1818C161.82 51.6212 160.551 51.8409 159.111 51.8409ZM175.123 41.4091V51.5H170.282V34.0455H174.895V37.125H175.1C175.486 36.1098 176.134 35.3068 177.043 34.7159C177.952 34.1174 179.054 33.8182 180.35 33.8182C181.562 33.8182 182.619 34.0833 183.52 34.6136C184.422 35.1439 185.123 35.9015 185.623 36.8864C186.123 37.8636 186.373 39.0303 186.373 40.3864V51.5H181.532V41.25C181.539 40.1818 181.267 39.3485 180.714 38.75C180.161 38.1439 179.399 37.8409 178.429 37.8409C177.778 37.8409 177.202 37.9811 176.702 38.2614C176.21 38.5417 175.823 38.9508 175.543 39.4886C175.27 40.0189 175.13 40.6591 175.123 41.4091ZM206.469 43.4091H210.651L212.753 46.1136L214.822 48.5227L218.719 53.4091H214.128L211.447 50.1136L210.072 48.1591L206.469 43.4091ZM219.072 39.8636C219.072 42.4015 218.59 44.5606 217.628 46.3409C216.674 48.1212 215.371 49.4811 213.719 50.4205C212.075 51.3523 210.227 51.8182 208.174 51.8182C206.106 51.8182 204.25 51.3485 202.606 50.4091C200.962 49.4697 199.662 48.1098 198.708 46.3295C197.753 44.5492 197.276 42.3939 197.276 39.8636C197.276 37.3258 197.753 35.1667 198.708 33.3864C199.662 31.6061 200.962 30.25 202.606 29.3182C204.25 28.3788 206.106 27.9091 208.174 27.9091C210.227 27.9091 212.075 28.3788 213.719 29.3182C215.371 30.25 216.674 31.6061 217.628 33.3864C218.59 35.1667 219.072 37.3258 219.072 39.8636ZM214.083 39.8636C214.083 38.2197 213.837 36.8333 213.344 35.7045C212.859 34.5758 212.174 33.7197 211.287 33.1364C210.401 32.553 209.363 32.2614 208.174 32.2614C206.984 32.2614 205.947 32.553 205.06 33.1364C204.174 33.7197 203.484 34.5758 202.992 35.7045C202.507 36.8333 202.265 38.2197 202.265 39.8636C202.265 41.5076 202.507 42.8939 202.992 44.0227C203.484 45.1515 204.174 46.0076 205.06 46.5909C205.947 47.1742 206.984 47.4659 208.174 47.4659C209.363 47.4659 210.401 47.1742 211.287 46.5909C212.174 46.0076 212.859 45.1515 213.344 44.0227C213.837 42.8939 214.083 41.5076 214.083 39.8636ZM233.819 44.0682V34.0455H238.66V51.5H234.012V48.3295H233.83C233.436 49.3523 232.781 50.1742 231.864 50.7955C230.955 51.4167 229.845 51.7273 228.535 51.7273C227.368 51.7273 226.341 51.4621 225.455 50.9318C224.569 50.4015 223.875 49.6477 223.375 48.6705C222.883 47.6932 222.633 46.5227 222.625 45.1591V34.0455H227.466V44.2955C227.474 45.3258 227.75 46.1402 228.296 46.7386C228.841 47.3371 229.572 47.6364 230.489 47.6364C231.072 47.6364 231.618 47.5038 232.125 47.2386C232.633 46.9659 233.042 46.5644 233.353 46.0341C233.671 45.5038 233.826 44.8485 233.819 44.0682ZM242.532 51.5V34.0455H247.373V51.5H242.532ZM244.964 31.7955C244.244 31.7955 243.626 31.5568 243.111 31.0795C242.604 30.5947 242.35 30.0152 242.35 29.3409C242.35 28.6742 242.604 28.1023 243.111 27.625C243.626 27.1402 244.244 26.8977 244.964 26.8977C245.683 26.8977 246.297 27.1402 246.804 27.625C247.32 28.1023 247.577 28.6742 247.577 29.3409C247.577 30.0152 247.32 30.5947 246.804 31.0795C246.297 31.5568 245.683 31.7955 244.964 31.7955ZM251.16 51.5V48.6136L259.705 38.0341V37.9091H251.455V34.0455H265.535V37.1932L257.512 47.5114V47.6364H265.83V51.5H251.16Z" fill="url(#paint11_linear_1169_735)"/>
<defs>
<linearGradient id="paint0_linear_1169_735" x1="-0.00645449" y1="37.4481" x2="80.0039" y2="37.5067" gradientUnits="userSpaceOnUse">
<stop stop-color="#800080"/>
<stop offset="1" stop-color="#FFC0CB"/>
</linearGradient>
<linearGradient id="paint1_linear_1169_735" x1="59.8041" y1="12.4522" x2="71.0376" y2="12.458" gradientUnits="userSpaceOnUse">
<stop stop-color="#800080"/>
<stop offset="1" stop-color="#FFC0CB"/>
</linearGradient>
<linearGradient id="paint2_linear_1169_735" x1="51.8494" y1="41.623" x2="55.8652" y2="41.6243" gradientUnits="userSpaceOnUse">
<stop stop-color="#800080"/>
<stop offset="1" stop-color="#FFC0CB"/>
</linearGradient>
<linearGradient id="paint3_linear_1169_735" x1="11.2157" y1="41.6017" x2="15.1937" y2="41.6029" gradientUnits="userSpaceOnUse">
<stop stop-color="#800080"/>
<stop offset="1" stop-color="#FFC0CB"/>
</linearGradient>
<linearGradient id="paint4_linear_1169_735" x1="38.1128" y1="39.1294" x2="45.6613" y2="39.1349" gradientUnits="userSpaceOnUse">
<stop stop-color="#800080"/>
<stop offset="1" stop-color="#FFC0CB"/>
</linearGradient>
<linearGradient id="paint5_linear_1169_735" x1="19.0218" y1="28.2244" x2="26.5757" y2="28.2299" gradientUnits="userSpaceOnUse">
<stop stop-color="#800080"/>
<stop offset="1" stop-color="#FFC0CB"/>
</linearGradient>
<linearGradient id="paint6_linear_1169_735" x1="21.3784" y1="44.1714" x2="28.9383" y2="44.1769" gradientUnits="userSpaceOnUse">
<stop stop-color="#800080"/>
<stop offset="1" stop-color="#FFC0CB"/>
</linearGradient>
<linearGradient id="paint7_linear_1169_735" x1="40.4874" y1="28.2223" x2="48.0135" y2="28.2278" gradientUnits="userSpaceOnUse">
<stop stop-color="#800080"/>
<stop offset="1" stop-color="#FFC0CB"/>
</linearGradient>
<linearGradient id="paint8_linear_1169_735" x1="24.0662" y1="16.152" x2="29.7252" y2="16.1562" gradientUnits="userSpaceOnUse">
<stop stop-color="#800080"/>
<stop offset="1" stop-color="#FFC0CB"/>
</linearGradient>
<linearGradient id="paint9_linear_1169_735" x1="37.3212" y1="16.1532" x2="42.9916" y2="16.1574" gradientUnits="userSpaceOnUse">
<stop stop-color="#800080"/>
<stop offset="1" stop-color="#FFC0CB"/>
</linearGradient>
<linearGradient id="paint10_linear_1169_735" x1="64.3496" y1="23.0984" x2="66.4669" y2="23.1" gradientUnits="userSpaceOnUse">
<stop stop-color="#800080"/>
<stop offset="1" stop-color="#FFC0CB"/>
</linearGradient>
<linearGradient id="paint11_linear_1169_735" x1="90.0062" y1="38.7542" x2="268.004" y2="39.3492" gradientUnits="userSpaceOnUse">
<stop stop-color="#800080"/>
<stop offset="1" stop-color="#FFC0CB"/>
</linearGradient>
<clipPath id="clip0_1169_735">
<rect width="80.0061" height="80" fill="white"/>
</clipPath>
</defs>
</svg>
