<svg width="33" height="40" viewBox="0 0 33 40" fill="none" xmlns="http://www.w3.org/2000/svg">
<path d="M14.8912 0H21.4277V29.9592C18.0796 30.5925 15.6148 30.8417 12.9479 30.8417C4.96439 30.8333 0.808594 27.2667 0.808594 20.4167C0.808594 13.8167 5.21676 9.53331 12.0478 9.53331C13.1078 9.53331 13.9153 9.61674 14.8912 9.86665V0ZM15.1202 15.2656C14.3546 15.0156 13.7238 14.9323 12.9161 14.9323C9.61007 14.9323 7.70044 16.9489 7.70044 20.483C7.70044 23.9239 9.52603 25.8239 12.8742 25.8239C13.5975 25.8239 14.1864 25.7831 15.1202 25.6581V15.2656Z" fill="#2BA977"/>
<path d="M32.117 10.3376V25.3378C32.117 30.5035 31.7301 32.9877 30.5944 35.1295C29.5344 37.1885 28.1379 38.4869 25.2524 39.921L19.187 37.0628C22.0725 35.7218 23.4689 34.5369 24.3607 32.7286C25.2944 30.8795 25.5888 28.7377 25.5888 23.1044V10.3378L32.117 10.3376ZM24.9301 0H31.4667V6.64169H24.9301V0Z" fill="#2BA977"/>
</svg>
