<svg width="59" height="40" viewBox="0 0 59 40" fill="none" xmlns="http://www.w3.org/2000/svg">
<g clip-path="url(#clip0_1063_664)">
<path d="M58.561 18.6811C58.1445 18.2646 52.7996 11.5315 51.8972 10.4208C50.9254 9.31021 50.509 9.51846 49.8842 9.58787C49.2595 9.65728 42.5264 10.8373 41.7628 10.9067C40.9992 11.0456 40.5133 11.3232 40.9992 12.0174C41.4157 12.6421 45.8582 18.8893 46.83 20.347L29.1295 24.5813L15.1078 1.04996C14.5525 0.21699 14.4137 -0.0606661 13.1643 0.00874785C11.9148 0.0781618 2.12744 0.911129 1.4333 0.911129C0.739165 0.980543 -0.0243881 1.2582 0.669751 2.92413C1.36389 4.59007 12.4701 28.4685 12.7478 29.1626C13.0254 29.8567 13.8584 30.9674 15.7326 30.5509C17.6762 30.065 24.3399 28.3296 28.0188 27.3578C29.9624 30.8285 33.8496 37.9088 34.6132 38.95C35.585 40.3382 36.2791 40.0606 37.7368 39.6441C38.9168 39.297 55.9232 33.1886 56.6868 32.8415C57.4503 32.4945 57.9362 32.2862 57.3809 31.5227C56.9644 30.9674 52.522 24.9283 50.1619 21.8047C51.7584 21.3882 57.5198 19.8611 58.1445 19.6529C58.8386 19.4446 58.9775 19.0976 58.561 18.6811ZM26.4223 25.2754C26.2141 25.3448 16.2879 27.7049 15.802 27.8437C15.2467 27.9826 15.2467 27.9131 15.2467 27.7049C15.1078 27.4967 3.44631 3.34062 3.23807 3.06296C3.09924 2.78531 3.09924 2.50765 3.23807 2.50765C3.37689 2.50765 12.6089 1.67468 12.8866 1.67468C13.2337 1.67468 13.1643 1.7441 13.3031 1.95234C13.3031 1.95234 26.2835 24.373 26.4917 24.7201C26.7694 25.0672 26.6306 25.206 26.4223 25.2754ZM54.3267 30.4815C54.4655 30.7591 54.6738 30.8979 54.1185 31.0368C53.6326 31.245 37.3897 36.7287 37.0427 36.8675C36.6956 37.0064 36.4873 37.0758 36.0709 36.4511C35.6544 35.8263 30.3789 26.7331 30.3789 26.7331L47.663 22.2212C48.0795 22.0824 48.2183 22.013 48.4959 22.4294C48.7736 22.9153 54.1879 30.2732 54.3267 30.4815ZM55.4373 18.2646C55.0209 18.334 48.7042 19.9305 48.7042 19.9305L43.4981 12.8503C43.3593 12.6421 43.2205 12.4338 43.5676 12.3644C43.9146 12.295 49.8148 11.2538 50.0925 11.1844C50.3701 11.115 50.5784 11.0456 50.9254 11.5315C51.2725 11.9479 55.715 17.6399 55.9232 17.8481C56.1315 18.0564 55.8538 18.1952 55.4373 18.2646Z" fill="#FB503B"/>
</g>
<defs>
<clipPath id="clip0_1063_664">
<rect width="58.3771" height="40" fill="white" transform="translate(0.39209)"/>
</clipPath>
</defs>
</svg>
