<svg width="101" height="100" viewBox="0 0 101 100" fill="none" xmlns="http://www.w3.org/2000/svg">
<g clip-path="url(#clip0_1169_670)">
<path d="M0.567871 35.3532C0.851717 34.3949 1.04442 33.3975 1.43764 32.4861C3.14072 28.5253 6.20573 26.2675 10.4504 25.5175C10.6301 24.7597 10.7473 23.9837 11.0025 23.2572C12.5962 18.6766 15.7445 15.8199 20.5204 14.8433C21.1584 14.7131 21.4162 14.4866 21.536 13.8173C21.6949 12.9345 22.0386 12.0726 22.398 11.2393C22.8433 10.208 23.5672 9.932 24.5099 10.3252C25.3432 10.6716 25.6036 11.4189 25.1453 12.4423C23.9657 15.0855 24.0021 17.6922 25.4526 20.1974C25.9317 21.0255 26.6427 21.7312 27.3119 22.4343C28.0984 23.2598 28.2624 24.1608 27.6478 24.8431C27.0098 25.5488 26.1297 25.5358 25.2286 24.7702C23.1141 22.9759 21.8589 20.6817 21.3459 17.9813C18.4215 17.3615 13.9555 21.6765 13.6899 25.3118C14.9555 25.8144 16.2289 26.2623 17.4476 26.8274C18.0856 27.1217 18.6637 27.5826 19.2132 28.0357C20.0699 28.7388 20.1949 29.606 19.6168 30.3325C19.0361 31.0617 18.1481 31.1502 17.2888 30.4601C15.505 29.0253 13.5024 28.4107 11.216 28.5435C7.62236 28.7492 4.30735 31.7231 3.74747 35.2777C3.27092 38.3011 4.1511 40.8296 6.3724 42.9676C8.27339 41.7645 10.2577 41.0119 12.4608 40.9677C13.6456 40.9442 14.3592 41.465 14.4503 42.3817C14.5388 43.2723 13.8852 43.9572 12.7082 44.0509C9.27075 44.3243 6.70051 45.8946 5.29691 49.0846C2.93239 54.4543 6.72916 60.3995 12.6483 60.6833C14.1092 60.7536 14.9503 61.9697 14.1769 63.0062C13.8826 63.3994 13.2212 63.6962 12.7108 63.7223C10.427 63.8369 8.38015 63.0374 6.39323 61.79C4.96358 63.014 4.07038 64.5634 3.7683 66.4019C2.91156 71.6257 6.45052 76.0319 11.729 76.2558C13.7602 76.3417 15.6456 75.6829 17.2263 74.3496C17.4684 74.1465 17.6429 73.7819 17.708 73.4616C18.4892 69.6961 21.109 67.2482 24.8849 66.7977C26.0515 66.6571 26.9057 67.1935 27.0151 68.1336C27.14 69.1987 26.5073 69.8471 25.2339 69.9617C22.6219 70.1961 20.7262 72.2038 20.7496 74.7116C20.773 77.2063 22.7001 79.2297 25.3094 79.4198C26.0672 79.4745 26.6583 79.7088 26.9447 80.4198C27.3979 81.5395 26.7 82.5421 25.4552 82.5447C22.4475 82.5499 20.2887 81.063 18.7054 78.6099C18.5127 78.3104 18.3642 77.9849 18.2158 77.7115C16.7445 78.2688 15.3018 78.8156 13.7159 79.4172C13.6508 80.4198 14.0883 81.4276 14.669 82.3468C18.4997 88.4117 26.226 88.68 30.4941 82.9041C30.9811 82.2452 31.5358 81.7895 32.3743 81.9926C33.244 82.2036 33.58 82.8598 33.6763 83.7244C33.8117 84.9405 34.6086 85.6774 35.8533 85.8545C37.059 86.0264 37.7309 86.792 37.546 87.7816C37.3637 88.7503 36.4341 89.2581 35.27 89.068C33.7284 88.818 32.4732 88.0758 31.429 86.8232C29.4707 88.6123 27.2182 89.6982 24.4318 90.2112C24.8276 91.1669 25.0958 92.0939 25.5698 92.9012C27.3718 95.9558 30.955 97.4818 34.3586 96.724C37.8038 95.9558 40.2959 93.2215 40.7412 89.6904C40.835 88.9508 40.8975 88.2034 40.8975 87.4587C40.9157 63.7639 40.9261 40.0692 40.9313 16.3745C40.9313 12.208 38.3871 8.89817 34.4211 7.99455C32.7805 7.61956 31.1399 7.75757 29.5332 8.35652C28.1426 8.87473 27.0411 8.11954 27.3406 6.81749C27.4525 6.32532 28.002 5.75762 28.4916 5.5545C33.1607 3.61185 38.6944 5.22899 41.7256 9.35909C41.9704 9.69242 42.2021 10.0336 42.4912 10.4398C43.8896 8.18465 45.7203 6.53625 48.1238 5.55971C54.6497 2.90614 62.1313 6.96072 63.4411 13.8772C63.5427 14.4137 63.6208 14.859 64.3916 14.7314C64.488 14.3746 64.5947 13.971 64.7015 13.5699C66.941 5.20035 74.6934 -0.416697 83.3911 0.0286045C91.7815 0.458281 98.9349 6.86437 100.318 15.2626C101.036 19.6271 100.229 23.7415 97.9922 27.5617C97.4454 28.4992 96.698 28.7492 95.8777 28.3274C95.0418 27.8977 94.8621 27.0852 95.4402 26.0748C96.5339 24.1582 97.211 22.1218 97.4923 19.9239C98.5 12.0387 92.6226 4.27329 84.766 3.16654C76.3027 1.97387 68.9019 7.23675 67.3056 15.6428C66.6988 18.838 67.1572 21.9395 68.5946 24.8535C69.0295 25.7363 69.0998 26.5357 68.8602 27.4654C68.3993 29.2518 68.0217 31.0565 67.5738 32.9991C69.5061 32.5538 71.3341 32.1632 73.144 31.7049C74.0372 31.4783 74.8054 31.5538 75.6673 31.9523C80.7688 34.3038 85.7504 34.0251 90.5602 31.0877C90.7268 30.9861 90.8883 30.8742 91.0575 30.7804C91.9039 30.3143 92.6643 30.4497 93.1148 31.145C93.5887 31.8741 93.4221 32.7205 92.6382 33.2673C90.8075 34.5486 88.7972 35.4444 86.6202 35.9548C85.9249 36.1188 85.2192 36.2412 84.4067 36.4053C84.4171 39.7333 83.2791 42.6499 80.8078 45.0587C84.253 49.8867 84.2947 54.7355 80.8261 59.6443C81.0162 59.863 81.2245 60.1 81.4328 60.337C83.8989 63.165 84.8259 66.4253 84.1619 70.1205C83.9588 71.2481 83.352 71.6804 82.2401 71.5502C81.4458 71.4591 81.0057 70.92 81.1594 69.8107C81.4198 67.9253 81.3078 66.1233 80.4641 64.3967C80.3209 64.1051 80.1672 63.816 79.9953 63.54C78.9329 61.8343 78.9173 61.9463 77.0996 62.6416C75.5762 63.2223 73.933 63.5296 72.3159 63.8108C71.2925 63.9879 70.4696 63.2015 70.4383 62.2744C70.4071 61.3812 71.0972 60.725 72.1466 60.6547C76.7663 60.3422 80.0683 57.2251 80.3078 52.647C80.4771 49.4154 78.6308 46.0352 74.8757 44.6473C73.9773 44.3139 72.9877 44.2072 72.0346 44.0405C71.0789 43.8738 70.48 43.2879 70.5086 42.4598C70.5373 41.59 71.2248 40.9598 72.2247 40.9703C74.1726 40.9859 76.0528 41.3739 77.7168 42.4103C78.4433 42.8634 78.8365 42.7124 79.3339 42.1213C80.511 40.7255 81.0891 39.0953 81.2844 37.3193C81.3078 37.1006 80.9719 36.6527 80.761 36.624C78.5188 36.3324 76.3887 35.6891 74.3314 34.7621C74.1283 34.6709 73.8315 34.7282 73.5919 34.7803C71.1232 35.3324 68.6571 35.9001 66.1884 36.46C64.6989 36.7959 63.7666 35.874 64.1 34.3923C64.6572 31.9236 65.2301 29.4601 65.7744 26.9888C65.8395 26.6972 65.8499 26.3326 65.7327 26.0696C64.6182 23.6087 64.014 21.0359 63.9802 18.3328C63.9802 18.2365 63.9698 18.1375 63.9385 18.0464C63.9229 17.9969 63.8552 17.963 63.7093 17.8276C63.6234 18.1089 63.5427 18.3276 63.4906 18.5516C62.9307 20.8927 61.7927 22.8952 60.0063 24.5228C58.9048 25.5253 57.9986 25.6295 57.2955 24.83C56.6496 24.0957 56.8528 23.1843 57.8736 22.2338C62.6156 17.8224 60.9516 10.0987 54.8372 8.156C49.3191 6.40084 44.012 10.5153 44.0042 16.5933C43.9885 28.8977 43.999 41.1994 43.999 53.5038C43.999 59.9151 43.9781 66.329 44.0042 72.7403C44.0276 78.2063 44.038 83.6723 44.1812 89.1357C44.2906 93.2398 47.3817 96.3699 51.4831 96.8308C56.1444 97.3542 59.7798 93.9064 60.3735 90.2268C57.8579 89.6878 55.5221 88.7008 53.556 86.8415C52.4831 87.9951 51.2826 88.8258 49.728 89.0576C48.5145 89.2372 47.5535 88.7373 47.3791 87.7399C47.2124 86.779 47.9077 86.029 49.1316 85.8545C50.2957 85.6879 51.1055 84.9769 51.2383 83.8858C51.3477 82.9718 51.6211 82.201 52.6055 81.9874C53.6029 81.7713 54.1211 82.4562 54.6497 83.1645C56.8423 86.0967 59.8214 87.4378 63.4177 86.943C67.2275 86.417 69.7691 84.1801 71.0164 80.5057C71.2847 79.7167 71.2482 79.2948 70.2586 79.0708C69.1024 78.8078 68.0087 78.2662 66.7848 77.8053C66.6728 77.9953 66.5218 78.2636 66.3603 78.5292C64.8577 81.0161 62.712 82.4484 59.7563 82.5395C58.6027 82.576 57.9699 82.0994 57.8944 81.1541C57.8111 80.1047 58.3345 79.537 59.5011 79.4016C61.6156 79.1568 63.2041 78.1802 63.889 76.0839C64.5192 74.1517 64.0166 72.42 62.4646 71.1726C61.7276 70.5789 60.6964 70.2273 59.7459 70.0476C58.4439 69.8028 57.798 69.2951 57.8918 68.1571C57.9751 67.1753 58.8058 66.6311 60.0584 66.7378C63.6312 67.0373 66.5921 69.7508 67.2561 73.2793C67.3316 73.683 67.579 74.1413 67.8915 74.3965C70.5112 76.5397 74.4148 76.7714 77.3079 75.0032C77.6126 74.8157 77.8991 74.597 78.2115 74.4225C78.9146 74.0345 79.6021 74.0111 80.1308 74.696C80.7063 75.4407 80.6125 76.4068 79.9042 76.9641C78.5006 78.0683 76.9017 78.787 75.1413 79.0787C74.5762 79.1724 74.4356 79.4042 74.321 79.925C73.1336 85.3597 69.8394 88.7268 64.3812 89.9299C63.9385 90.0263 63.5713 90.0575 63.4437 90.6825C62.4333 95.6668 59.0793 98.9063 54.0377 99.8568C53.9153 99.8802 53.8008 99.9557 53.6836 100.005C52.7721 100.005 51.8607 100.005 50.9493 100.005C50.767 99.9453 50.5873 99.862 50.3998 99.8281C47.6655 99.3438 45.4182 98.0157 43.6344 95.9037C43.2203 95.4142 42.8636 94.8803 42.4469 94.3231C40.861 96.8594 38.7361 98.6354 35.908 99.5026C35.3273 99.6797 34.7388 99.8385 34.1555 100.005C33.1789 100.005 32.2024 100.005 31.2259 100.005C31.0462 99.9453 30.8691 99.8594 30.6842 99.8281C26.0672 99.0209 22.385 95.4611 21.5126 90.8622C21.3902 90.2138 21.1194 90.0419 20.5517 89.9169C15.1508 88.7295 11.8358 85.4248 10.6483 80.0187C10.5233 79.4536 10.3541 79.1906 9.71085 79.05C5.3568 78.0839 2.45844 75.4537 1.04963 71.2117C0.846509 70.6023 0.721512 69.9643 0.560059 69.3393C0.560059 68.3628 0.560059 67.3863 0.560059 66.4097C1.16681 63.8525 2.14856 61.488 4.1485 59.6885C0.659014 54.7746 0.674639 49.931 4.05996 45.1681C3.36206 44.2019 2.56261 43.353 2.07304 42.353C1.44024 41.0614 1.05484 39.6448 0.562663 38.2828C0.567871 37.3063 0.567871 36.3298 0.567871 35.3532Z" fill="url(#paint0_linear_1169_670)"/>
<path d="M83.8158 20.3406C83.8158 21.6348 83.8262 22.9968 83.8132 24.3613C83.8027 25.4655 83.2038 26.1581 82.3106 26.1425C81.42 26.1269 80.8341 25.429 80.8263 24.3249C80.8132 22.601 80.8132 20.877 80.8263 19.1531C80.8367 17.9526 81.3002 17.4735 82.5111 17.3485C84.873 17.1089 86.4042 15.4084 86.3261 13.1194C86.2532 11.0179 84.5345 9.33828 82.4069 9.2862C80.2299 9.23411 78.5346 10.8356 78.3159 13.1507C78.2196 14.1845 77.6102 14.8381 76.7665 14.8173C75.8654 14.7965 75.303 14.0829 75.3238 12.9866C75.3889 9.27057 78.7638 6.12222 82.5293 6.26284C86.4693 6.41127 89.6541 9.85389 89.3442 13.6767C89.0916 16.7652 87.4875 18.8641 84.5814 19.963C84.3678 20.0437 84.1543 20.1192 83.9434 20.2026C83.9173 20.2156 83.8991 20.2494 83.8158 20.3406Z" fill="url(#paint1_linear_1169_670)"/>
<path d="M70.3996 52.0871C70.3788 54.4334 69.7017 56.212 68.3189 57.7068C67.5169 58.5713 66.6653 58.6859 65.9232 58.0661C65.2018 57.4646 65.1992 56.5505 65.9128 55.6495C67.6627 53.4386 67.6653 51.2746 65.9232 49.1028C65.1914 48.1914 65.2097 47.3294 65.9779 46.707C66.6575 46.1524 67.5924 46.293 68.3033 47.0846C69.6548 48.5924 70.3137 50.3814 70.3996 52.0871Z" fill="url(#paint2_linear_1169_670)"/>
<path d="M14.588 52.0689C14.6714 50.2929 15.3276 48.5013 16.7208 47.0118C17.4239 46.2592 18.403 46.1707 19.0541 46.7748C19.7181 47.3894 19.7285 48.2201 19.0879 49.0378C17.2546 51.3788 17.2416 53.3658 19.0515 55.6522C19.7363 56.5193 19.7285 57.3735 19.0306 57.9933C18.3275 58.613 17.4838 58.5115 16.7078 57.7146C15.4031 56.3683 14.575 54.2616 14.588 52.0689Z" fill="url(#paint3_linear_1169_670)"/>
<path d="M57.6443 51.7746C57.66 53.1079 57.1157 53.8345 56.2277 53.9308C55.3684 54.022 54.6418 53.3996 54.5377 52.3033C54.3319 50.108 53.3059 48.5742 51.1862 47.8607C50.793 47.7279 50.3607 47.7148 49.944 47.6523C48.8087 47.4857 48.1238 46.8034 48.2175 45.9232C48.3191 44.9727 49.1211 44.4233 50.3034 44.4936C53.6366 44.6967 56.6704 47.2435 57.423 50.4882C57.5402 50.996 57.6001 51.5116 57.6443 51.7746Z" fill="url(#paint4_linear_1169_670)"/>
<path d="M24.3457 38.3948C24.4108 34.4522 28.0539 30.8715 32.0069 30.8663C32.9496 30.8637 33.7126 31.4965 33.7829 32.3351C33.8506 33.1553 33.171 33.8923 32.2231 34.0199C29.132 34.4418 28.0148 35.5407 27.4706 38.7021C27.2805 39.8088 26.6633 40.3765 25.7493 40.288C24.8535 40.202 24.3274 39.4937 24.3457 38.3948Z" fill="url(#paint5_linear_1169_670)"/>
<path d="M34.7726 60.2171C30.8847 60.1625 27.2988 56.5271 27.291 52.634C27.2884 51.6002 27.9056 50.858 28.804 50.8137C29.6738 50.7695 30.3899 51.4283 30.4472 52.5116C30.5253 54.0116 31.0774 55.2824 32.3013 56.0923C33.0825 56.6105 34.0539 56.9047 34.9835 57.1157C36.1632 57.3865 36.8038 57.8891 36.7361 58.7875C36.6632 59.7093 35.9444 60.2328 34.7726 60.2171Z" fill="url(#paint6_linear_1169_670)"/>
<path d="M60.5843 38.34C60.6025 39.5379 60.0999 40.228 59.1599 40.2905C58.2146 40.3556 57.6755 39.7931 57.501 38.5588C57.1026 35.7464 55.6626 34.361 52.785 34.0224C51.8111 33.9079 51.1471 33.2334 51.1783 32.3871C51.2096 31.5381 51.9491 30.8819 52.8944 30.8637C56.7979 30.7934 60.5244 34.4131 60.5843 38.34Z" fill="url(#paint7_linear_1169_670)"/>
<path d="M35.9109 16.9213C36.9499 16.9109 37.627 17.4239 37.7155 18.2884C37.8093 19.1686 37.1739 19.8405 36.1166 19.9889C34.7078 20.1842 34.0151 20.8769 33.8094 22.3014C33.6453 23.4289 32.9891 24.007 32.0021 23.8899C31.0829 23.7831 30.5282 22.9394 30.674 21.8691C31.0621 19.0228 33.2599 16.9447 35.9109 16.9213Z" fill="url(#paint8_linear_1169_670)"/>
<path d="M49.0795 16.9214C51.793 16.9631 54.2018 19.351 54.3059 22.0983C54.3424 23.0332 53.8112 23.765 53.0091 23.8847C52.0846 24.0228 51.3269 23.5514 51.2071 22.5462C51.0092 20.8874 50.1524 20.0802 48.504 19.9421C47.6915 19.8744 47.1238 19.0047 47.2332 18.2495C47.3634 17.3875 48.0327 16.9058 49.0795 16.9214Z" fill="url(#paint9_linear_1169_670)"/>
<path d="M83.6509 28.916C83.6718 29.6816 83.1015 30.2857 82.3463 30.2961C81.5989 30.3066 80.9896 29.7076 81.0052 28.9524C81.0234 28.1452 81.4895 27.7077 82.2603 27.6269C83.0025 27.5514 83.6301 28.1608 83.6509 28.916Z" fill="url(#paint10_linear_1169_670)"/>
</g>
<defs>
<linearGradient id="paint0_linear_1169_670" x1="0.560059" y1="46.8101" x2="100.573" y2="46.8833" gradientUnits="userSpaceOnUse">
<stop stop-color="#800080"/>
<stop offset="1" stop-color="#FFC0CB"/>
</linearGradient>
<linearGradient id="paint1_linear_1169_670" x1="75.3232" y1="15.5653" x2="89.3651" y2="15.5726" gradientUnits="userSpaceOnUse">
<stop stop-color="#800080"/>
<stop offset="1" stop-color="#FFC0CB"/>
</linearGradient>
<linearGradient id="paint2_linear_1169_670" x1="65.3799" y1="52.0287" x2="70.3996" y2="52.0303" gradientUnits="userSpaceOnUse">
<stop stop-color="#800080"/>
<stop offset="1" stop-color="#FFC0CB"/>
</linearGradient>
<linearGradient id="paint3_linear_1169_670" x1="14.5879" y1="52.0021" x2="19.5604" y2="52.0036" gradientUnits="userSpaceOnUse">
<stop stop-color="#800080"/>
<stop offset="1" stop-color="#FFC0CB"/>
</linearGradient>
<linearGradient id="paint4_linear_1169_670" x1="48.209" y1="48.9116" x2="57.6447" y2="48.9185" gradientUnits="userSpaceOnUse">
<stop stop-color="#800080"/>
<stop offset="1" stop-color="#FFC0CB"/>
</linearGradient>
<linearGradient id="paint5_linear_1169_670" x1="24.3452" y1="35.2804" x2="33.7876" y2="35.2873" gradientUnits="userSpaceOnUse">
<stop stop-color="#800080"/>
<stop offset="1" stop-color="#FFC0CB"/>
</linearGradient>
<linearGradient id="paint6_linear_1169_670" x1="27.291" y1="55.2141" x2="36.741" y2="55.2211" gradientUnits="userSpaceOnUse">
<stop stop-color="#800080"/>
<stop offset="1" stop-color="#FFC0CB"/>
</linearGradient>
<linearGradient id="paint7_linear_1169_670" x1="51.1772" y1="35.2778" x2="60.5848" y2="35.2847" gradientUnits="userSpaceOnUse">
<stop stop-color="#800080"/>
<stop offset="1" stop-color="#FFC0CB"/>
</linearGradient>
<linearGradient id="paint8_linear_1169_670" x1="30.6509" y1="20.1899" x2="37.7246" y2="20.1951" gradientUnits="userSpaceOnUse">
<stop stop-color="#800080"/>
<stop offset="1" stop-color="#FFC0CB"/>
</linearGradient>
<linearGradient id="paint9_linear_1169_670" x1="47.2197" y1="20.1915" x2="54.3077" y2="20.1967" gradientUnits="userSpaceOnUse">
<stop stop-color="#800080"/>
<stop offset="1" stop-color="#FFC0CB"/>
</linearGradient>
<linearGradient id="paint10_linear_1169_670" x1="81.0049" y1="28.873" x2="83.6515" y2="28.8749" gradientUnits="userSpaceOnUse">
<stop stop-color="#800080"/>
<stop offset="1" stop-color="#FFC0CB"/>
</linearGradient>
<clipPath id="clip0_1169_670">
<rect width="100.008" height="100" fill="white" transform="translate(0.568359)"/>
</clipPath>
</defs>
</svg>
