<svg width="41" height="40" viewBox="0 0 41 40" fill="none" xmlns="http://www.w3.org/2000/svg">
<g clip-path="url(#clip0_1063_607)">
<path d="M20.5565 0.0112305C10.3868 0.0112305 11.0218 4.42143 11.0218 4.42143L11.0331 8.99053H20.7379V10.3623H7.17851C7.17851 10.3623 0.670898 9.62425 0.670898 19.8854C0.670898 30.1469 6.3509 29.783 6.3509 29.783H9.7407V25.0213C9.7407 25.0213 9.55796 19.3413 15.33 19.3413H24.9554C24.9554 19.3413 30.3633 19.4286 30.3633 14.1148V5.32856C30.3633 5.32856 31.1846 0.0112305 20.5565 0.0112305ZM15.2053 3.08386C15.4347 3.08365 15.6618 3.12867 15.8737 3.21634C16.0856 3.304 16.2782 3.43259 16.4403 3.59475C16.6025 3.75692 16.7311 3.94946 16.8187 4.16138C16.9064 4.37329 16.9514 4.60041 16.9512 4.82974C16.9514 5.05907 16.9064 5.28619 16.8187 5.49811C16.7311 5.71002 16.6025 5.90257 16.4403 6.06473C16.2782 6.22689 16.0856 6.35548 15.8737 6.44315C15.6618 6.53081 15.4347 6.57583 15.2053 6.57562C14.976 6.57583 14.7489 6.53081 14.537 6.44315C14.3251 6.35548 14.1325 6.22689 13.9703 6.06473C13.8082 5.90257 13.6796 5.71002 13.5919 5.49811C13.5043 5.28619 13.4592 5.05907 13.4594 4.82974C13.4592 4.60041 13.5043 4.37329 13.5919 4.16138C13.6796 3.94946 13.8082 3.75692 13.9703 3.59475C14.1325 3.43259 14.3251 3.304 14.537 3.21634C14.7489 3.12867 14.976 3.08365 15.2053 3.08386Z" fill="url(#paint0_linear_1063_607)"/>
<path d="M20.8451 39.8627C31.0148 39.8627 30.3798 35.4525 30.3798 35.4525L30.3685 30.8836H20.6636V29.5118H34.2229C34.2229 29.5118 40.7305 30.2499 40.7305 19.9884C40.7305 9.72703 35.0505 10.091 35.0505 10.091H31.6607V14.8525C31.6607 14.8525 31.8435 20.5325 26.0714 20.5325H16.446C16.446 20.5325 11.0381 20.4451 11.0381 25.7592V34.5455C11.0381 34.5455 10.217 39.8627 20.8449 39.8627H20.8451ZM26.1963 36.7904C25.9669 36.7906 25.7398 36.7456 25.5279 36.6579C25.316 36.5703 25.1234 36.4417 24.9613 36.2795C24.7991 36.1173 24.6705 35.9248 24.5829 35.7129C24.4952 35.501 24.4502 35.2739 24.4504 35.0445C24.4502 34.8152 24.4952 34.588 24.5828 34.3761C24.6705 34.1642 24.7991 33.9716 24.9612 33.8094C25.1234 33.6473 25.3159 33.5187 25.5279 33.431C25.7398 33.3433 25.9669 33.2983 26.1963 33.2985C26.4256 33.2983 26.6527 33.3433 26.8646 33.431C27.0765 33.5186 27.2691 33.6472 27.4313 33.8094C27.5934 33.9715 27.722 34.1641 27.8097 34.376C27.8973 34.5879 27.9424 34.815 27.9422 35.0444C27.9424 35.2737 27.8973 35.5008 27.8097 35.7127C27.722 35.9246 27.5934 36.1172 27.4313 36.2793C27.2691 36.4415 27.0765 36.5701 26.8646 36.6578C26.6527 36.7454 26.4256 36.7906 26.1963 36.7904Z" fill="url(#paint1_linear_1063_607)"/>
</g>
<defs>
<linearGradient id="paint0_linear_1063_607" x1="385.645" y1="358.453" x2="2370.89" y2="2323.9" gradientUnits="userSpaceOnUse">
<stop stop-color="#387EB8"/>
<stop offset="1" stop-color="#366994"/>
</linearGradient>
<linearGradient id="paint1_linear_1063_607" x1="579.261" y1="622.795" x2="2711.19" y2="2638.17" gradientUnits="userSpaceOnUse">
<stop stop-color="#FFE052"/>
<stop offset="1" stop-color="#FFC331"/>
</linearGradient>
<clipPath id="clip0_1063_607">
<rect width="40.1606" height="40" fill="white" transform="translate(0.647949)"/>
</clipPath>
</defs>
</svg>
