<svg width="36" height="32" viewBox="0 0 36 32" fill="none" xmlns="http://www.w3.org/2000/svg">
<path d="M35.5884 16.0035C35.5884 13.678 32.6762 11.4742 28.2112 10.1075C29.2416 5.55675 28.7837 1.93616 26.7659 0.776994C26.3008 0.505091 25.757 0.376296 25.1631 0.376296V1.97193C25.4922 1.97193 25.757 2.03633 25.9788 2.15797C26.9519 2.71609 27.3741 4.84122 27.0449 7.57455C26.9662 8.24715 26.8374 8.95552 26.68 9.67821C25.2776 9.33476 23.7463 9.07001 22.1364 8.89828C21.1704 7.57455 20.1687 6.37245 19.1598 5.32062C21.4924 3.15256 23.6819 1.96478 25.1702 1.96478V0.369141C23.2025 0.369141 20.6266 1.77158 18.0221 4.20439C15.4175 1.78589 12.8416 0.397762 10.8739 0.397762V1.9934C12.3551 1.9934 14.5517 3.17403 16.8844 5.32778C15.8826 6.37961 14.8809 7.57455 13.9292 8.89828C12.3121 9.07001 10.7809 9.33476 9.37844 9.68537C9.21387 8.96983 9.09222 8.27577 9.00636 7.61032C8.67006 4.87699 9.08507 2.75186 10.051 2.18659C10.2657 2.0578 10.5448 2.00055 10.8739 2.00055V0.404917C10.2729 0.404917 9.72905 0.533713 9.2568 0.805615C7.24615 1.96478 6.79537 5.57821 7.83289 10.1147C3.38228 11.4885 0.484375 13.6852 0.484375 16.0035C0.484375 18.329 3.39659 20.5328 7.86151 21.8995C6.83114 26.4503 7.28908 30.0709 9.30688 31.23C9.77198 31.5019 10.3158 31.6307 10.9168 31.6307C12.8845 31.6307 15.4605 30.2283 18.065 27.7955C20.6695 30.214 23.2454 31.6021 25.2132 31.6021C25.8142 31.6021 26.358 31.4733 26.8303 31.2014C28.8409 30.0422 29.2917 26.4288 28.2542 21.8923C32.6905 20.5257 35.5884 18.3218 35.5884 16.0035ZM26.2721 11.2309C26.0074 12.154 25.6783 13.1056 25.3062 14.0573C25.0128 13.4848 24.7051 12.9124 24.3688 12.34C24.0397 11.7676 23.6891 11.2094 23.3385 10.6656C24.3545 10.8159 25.3348 11.0019 26.2721 11.2309ZM22.995 18.8513C22.4369 19.8173 21.8645 20.7332 21.2706 21.5847C20.2044 21.6777 19.124 21.7278 18.0364 21.7278C16.9559 21.7278 15.8755 21.6777 14.8165 21.5918C14.2226 20.7403 13.643 19.8316 13.0849 18.8728C12.5411 17.9354 12.0474 16.9838 11.5966 16.025C12.0402 15.0662 12.5411 14.1074 13.0777 13.17C13.6359 12.204 14.2083 11.2882 14.8022 10.4367C15.8683 10.3437 16.9488 10.2936 18.0364 10.2936C19.1168 10.2936 20.1973 10.3437 21.2563 10.4295C21.8502 11.281 22.4297 12.1897 22.9879 13.1485C23.5317 14.0859 24.0254 15.0375 24.4762 15.9964C24.0254 16.9552 23.5317 17.914 22.995 18.8513ZM25.3062 17.9211C25.6926 18.88 26.0217 19.8388 26.2936 20.769C25.3563 20.9979 24.3688 21.1911 23.3456 21.3414C23.6962 20.7904 24.0468 20.2252 24.376 19.6456C24.7051 19.0731 25.0128 18.4936 25.3062 17.9211ZM18.0507 25.5559C17.3852 24.869 16.7198 24.1033 16.0615 23.2662C16.7055 23.2948 17.3638 23.3162 18.0292 23.3162C18.7018 23.3162 19.3673 23.3019 20.0184 23.2662C19.3744 24.1033 18.709 24.869 18.0507 25.5559ZM12.7271 21.3414C11.7111 21.1911 10.7308 21.0051 9.79345 20.7761C10.0582 19.8531 10.3873 18.9014 10.7594 17.9498C11.0528 18.5222 11.3605 19.0946 11.6968 19.667C12.0331 20.2395 12.3765 20.7976 12.7271 21.3414ZM18.0149 6.45116C18.6804 7.13807 19.3458 7.90369 20.0041 8.74086C19.3601 8.71224 18.7018 8.69078 18.0364 8.69078C17.3638 8.69078 16.6983 8.70509 16.0472 8.74086C16.6912 7.90369 17.3566 7.13807 18.0149 6.45116ZM12.72 10.6656C12.3694 11.2166 12.0188 11.7819 11.6896 12.3615C11.3605 12.9339 11.0528 13.5063 10.7594 14.0787C10.373 13.1199 10.0439 12.1611 9.77198 11.2309C10.7093 11.0091 11.6968 10.8159 12.72 10.6656ZM6.24441 19.6241C3.71143 18.5437 2.07286 17.1269 2.07286 16.0035C2.07286 14.8801 3.71143 13.4562 6.24441 12.3829C6.85977 12.1182 7.53236 11.882 8.22643 11.6602C8.63428 13.0627 9.17093 14.5224 9.83638 16.0178C9.17809 17.5061 8.6486 18.9587 8.2479 20.3539C7.53952 20.1321 6.86692 19.8889 6.24441 19.6241ZM10.094 29.8491C9.12085 29.2909 8.69868 27.1658 9.02783 24.4325C9.10654 23.7599 9.23533 23.0515 9.39275 22.3288C10.7952 22.6723 12.3264 22.937 13.9364 23.1087C14.9023 24.4325 15.9041 25.6346 16.913 26.6864C14.5804 28.8545 12.3908 30.0423 10.9025 30.0423C10.5805 30.0351 10.3086 29.9707 10.094 29.8491ZM27.0664 24.3967C27.4027 27.13 26.9877 29.2552 26.0217 29.8204C25.8071 29.9492 25.528 30.0065 25.1988 30.0065C23.7177 30.0065 21.521 28.8258 19.1884 26.6721C20.1901 25.6203 21.1919 24.4253 22.1435 23.1016C23.7606 22.9299 25.2919 22.6651 26.6943 22.3145C26.8589 23.0372 26.9877 23.7313 27.0664 24.3967ZM29.8212 19.6241C29.2058 19.8889 28.5332 20.125 27.8392 20.3468C27.4313 18.9444 26.8947 17.4847 26.2292 15.9892C26.8875 14.5009 27.417 13.0484 27.8177 11.6531C28.5261 11.8749 29.1987 12.1182 29.8283 12.3829C32.3613 13.4634 33.9999 14.8801 33.9999 16.0035C33.9927 17.1269 32.3542 18.5508 29.8212 19.6241Z" fill="#61DAFB"/>
<path d="M18.0293 19.2734C19.8352 19.2734 21.2992 17.8093 21.2992 16.0034C21.2992 14.1974 19.8352 12.7334 18.0293 12.7334C16.2233 12.7334 14.7593 14.1974 14.7593 16.0034C14.7593 17.8093 16.2233 19.2734 18.0293 19.2734Z" fill="#61DAFB"/>
</svg>
